<svg width="177" height="185" viewBox="0 0 177 185" fill="none" xmlns="http://www.w3.org/2000/svg">
<path d="M9.45035 9.65244C7.13256 11.0083 6.84381 13.412 6.84381 13.412C6.84381 13.412 4.56894 12.5068 2.25116 13.8627C-0.0666325 15.2186 -1.46745 19.3248 2.50479 22.391C6.47702 25.461 13.4421 24.4133 13.4421 24.4133C13.4421 24.4133 17.7187 18.8895 16.9032 13.9744C16.0877 9.05923 11.7681 8.29654 9.45035 9.65244Z" fill="#BDEAF5"/>
<path opacity="0.69" d="M105.225 39.0481C102.502 38.4833 100.584 40.1181 100.584 40.1181C100.584 40.1181 99.4918 37.8628 96.768 37.2979C94.0442 36.7331 90.0793 38.897 90.9376 43.9685C91.7958 49.04 97.8398 53.0375 97.8398 53.0375C97.8398 53.0375 105 51.7726 107.849 47.4688C110.701 43.169 107.949 39.6129 105.225 39.0481Z" fill="white"/>
<path d="M168.684 12.4013C166.258 11.8996 164.548 13.3525 164.548 13.3525C164.548 13.3525 163.573 11.3428 161.149 10.8411C158.723 10.3394 155.189 12.2679 155.953 16.7861C156.716 21.3042 162.104 24.8683 162.104 24.8683C162.104 24.8683 168.488 23.7431 171.026 19.9065C173.564 16.0727 171.111 12.903 168.684 12.4013Z" fill="#BDEAF5"/>
<path d="M46.8807 0.902447C45.543 0.624011 44.6001 1.4275 44.6001 1.4275C44.6001 1.4275 44.0642 0.32171 42.7265 0.0432745C41.3888 -0.235161 39.4426 0.826871 39.8617 3.32086C40.2807 5.81087 43.2503 7.77185 43.2503 7.77185C43.2503 7.77185 46.7679 7.15133 48.166 5.0392C49.5682 2.92707 48.2184 1.18088 46.8807 0.902447Z" fill="#BDEAF5"/>
<path d="M175.122 52.067C173.784 51.7886 172.841 52.592 172.841 52.592C172.841 52.592 172.305 51.4863 170.968 51.2078C169.63 50.9294 167.684 51.9914 168.103 54.4854C168.522 56.9754 171.492 58.9364 171.492 58.9364C171.492 58.9364 175.009 58.3159 176.407 56.2038C177.809 54.0916 176.456 52.3454 175.122 52.067Z" fill="#BDEAF5"/>
<path d="M115.311 105.206C115.799 104.939 139.363 108.668 141.057 104.714C142.754 100.76 139.054 98.4995 139.054 98.4995C139.054 98.4995 152.378 98.1117 152.115 94.8122C151.852 91.5093 150.074 90.6022 150.074 90.6022C150.074 90.6022 159.101 89.5324 159.557 86.5688C160.013 83.6052 154.801 81.8568 154.801 81.8568C154.801 81.8568 166.347 80.5619 163.296 77.0063C160.244 73.4506 146.952 77.4771 146.682 76.9994C146.412 76.5181 148.983 65.82 143.477 69.7703C137.967 73.7207 135.263 79.2705 135.263 79.2705C135.263 79.2705 135.67 72.2596 131.423 75.6249C127.176 78.9901 124.931 86.69 124.931 86.69C124.931 86.69 124.724 81.791 121.049 85.0524C117.37 88.3103 115.311 105.206 115.311 105.206Z" fill="#92CFEC"/>
<path d="M108.352 112.3C108.387 112.251 111.053 108.664 115.672 103.81C118.488 99.2127 120.231 89.1135 120.248 89.0131C120.287 88.7811 120.508 88.6253 120.743 88.6669C120.978 88.705 121.136 88.9231 121.094 89.1551C121.034 89.5117 119.789 96.7234 117.639 101.795C118.902 100.528 120.277 99.2058 121.757 97.8555C122.728 96.9727 123.766 96.0517 124.874 95.1169C128.266 89.0097 129.683 80.1119 129.697 80.0218C129.732 79.7899 129.953 79.6306 130.184 79.6687C130.419 79.7033 130.58 79.9214 130.542 80.1499C130.528 80.233 129.342 87.6975 126.53 93.739C127.48 92.9669 128.476 92.1845 129.507 91.4055C129.546 91.3639 129.591 91.3293 129.644 91.3051C131.808 89.6744 134.147 88.0541 136.63 86.51C140.053 79.3086 140.891 74.4166 140.902 74.3681C140.941 74.1361 141.161 73.9803 141.393 74.0184C141.628 74.0565 141.786 74.2746 141.747 74.5031C141.716 74.697 140.969 79.042 137.945 85.7067C138.577 85.3294 139.215 84.9589 139.86 84.5988C139.913 84.5469 139.983 84.5088 140.06 84.488C144.837 81.8256 150.07 79.5441 155.611 78.1107C155.839 78.0519 156.074 78.1869 156.133 78.4119C156.193 78.637 156.056 78.8689 155.828 78.9278C151.024 80.1707 146.447 82.0611 142.203 84.2872C148.232 84.0518 153.23 86.4165 153.464 86.5273C153.678 86.6311 153.766 86.8839 153.661 87.0916C153.556 87.3028 153.3 87.3893 153.089 87.2855C153.03 87.2578 146.969 84.3876 140.344 85.2947C137.125 87.0985 134.116 89.072 131.363 91.08C138.296 90.5953 145.275 93.7321 145.591 93.874C145.805 93.9709 145.9 94.2237 145.801 94.4349C145.703 94.6461 145.447 94.7396 145.233 94.6426C145.153 94.6045 137.146 91.0073 130.023 92.0771C127.136 94.2583 124.559 96.4429 122.353 98.4545C122.048 98.7314 121.75 99.0084 121.455 99.2819C127.912 98.1359 134.214 100.501 134.501 100.608C134.722 100.691 134.831 100.937 134.747 101.155C134.663 101.373 134.414 101.48 134.193 101.397C134.119 101.37 126.908 98.6691 120.262 100.407C113.269 107.1 109.092 112.726 109.047 112.788C108.938 112.937 108.749 112.992 108.58 112.947C108.535 112.933 108.489 112.913 108.447 112.881C108.258 112.753 108.215 112.49 108.352 112.3Z" fill="#BDEAF5"/>
<path d="M114.125 71.7303C114.125 71.7303 117.358 68.0208 121.116 69.2415C124.874 70.4623 123.353 73.1846 120.451 73.3265C117.55 73.4654 114.125 71.7303 114.125 71.7303Z" fill="#92CFEC"/>
<path d="M117.834 65.86C117.93 65.6708 119.499 64.2166 122.305 63.5604C125.11 62.9042 128.012 63.983 127.539 65.6738C127.063 67.3645 125.922 67.598 123.97 67.5064C122.02 67.4089 117.834 65.86 117.834 65.86Z" fill="#92CFEC"/>
<path d="M122.544 60.507C122.544 60.507 124.589 58.7217 127.778 58.5355C130.967 58.3492 131.536 61.1188 129.823 61.8223C128.11 62.5258 122.544 60.507 122.544 60.507Z" fill="#92CFEC"/>
<path d="M123.829 58.8163C123.829 58.8163 128.347 58.2044 130.536 56.6083C132.724 55.0121 131.344 51.3499 128.206 52.8514C125.065 54.353 123.829 58.8163 123.829 58.8163Z" fill="#92CFEC"/>
<path d="M119.975 60.977C119.975 60.977 121.308 59.4281 121.784 57.2201C122.26 55.0121 121.26 52.2425 119.311 52.807C117.361 53.3716 118.122 56.0466 118.739 57.9265C119.355 59.8005 119.975 60.977 119.975 60.977Z" fill="#92CFEC"/>
<path d="M115.074 67.0808C115.074 67.0808 117.31 64.1693 117.451 61.3524C117.595 58.5355 116.071 55.0594 113.502 56.6083C110.936 58.1571 115.074 67.0808 115.074 67.0808Z" fill="#92CFEC"/>
<path d="M111.412 72.9037C111.412 72.9037 113.409 69.7114 113.124 66.7526C112.84 63.7939 110.651 61.8696 108.891 62.9012C107.13 63.9328 109.319 71.9165 111.412 72.9037Z" fill="#92CFEC"/>
<path d="M108.166 81.0441C108.178 81.0116 109.064 78.6351 110.822 75.2596C111.63 72.3038 110.974 66.5044 110.968 66.4453C110.954 66.3123 111.049 66.1941 111.184 66.1793C111.319 66.1615 111.439 66.2591 111.454 66.3921C111.477 66.5961 111.945 70.7401 111.576 73.8497C112.067 72.96 112.606 72.02 113.202 71.0534C113.591 70.4179 114.017 69.7529 114.472 69.0701C115.355 65.2009 114.711 60.108 114.705 60.0548C114.687 59.9218 114.783 59.8006 114.918 59.7858C115.053 59.7681 115.175 59.8627 115.19 59.9957C115.196 60.043 115.735 64.3142 115.16 68.0621C115.559 67.4917 115.978 66.9094 116.418 66.3212C116.433 66.2916 116.451 66.265 116.475 66.2443C117.4 65.0147 118.421 63.7644 119.535 62.5318C120.259 58.0567 119.942 55.2486 119.936 55.2191C119.921 55.0861 120.017 54.9678 120.149 54.9501C120.283 54.9353 120.403 55.0299 120.421 55.16C120.433 55.2693 120.721 57.764 120.125 61.8845C120.409 61.58 120.7 61.2785 120.996 60.98C121.017 60.9416 121.047 60.912 121.086 60.8883C123.278 58.6892 125.778 56.626 128.583 54.9796C128.7 54.9117 128.85 54.9501 128.919 55.0624C128.988 55.1777 128.949 55.3255 128.835 55.3935C126.401 56.8211 124.197 58.568 122.23 60.445C125.493 59.3809 128.607 59.8981 128.754 59.9218C128.886 59.9454 128.976 60.0696 128.952 60.1996C128.928 60.3297 128.802 60.4184 128.67 60.3947C128.631 60.3888 124.856 59.7592 121.373 61.2844C119.897 62.7712 118.565 64.3201 117.379 65.8482C121.098 64.5063 125.419 65.1388 125.616 65.1684C125.751 65.1891 125.841 65.3132 125.82 65.4433C125.799 65.5763 125.673 65.665 125.541 65.6443C125.49 65.6354 120.532 64.9112 116.804 66.602C115.571 68.2424 114.508 69.8416 113.621 71.287C113.499 71.485 113.379 71.683 113.262 71.8811C116.616 70.2495 120.442 70.5657 120.616 70.5805C120.751 70.5923 120.849 70.7106 120.837 70.8436C120.825 70.9766 120.706 71.0741 120.571 71.0623C120.526 71.0594 116.148 70.6987 112.786 72.6851C110.025 77.438 108.633 81.1653 108.618 81.2067C108.582 81.3043 108.489 81.3663 108.387 81.3663C108.361 81.3663 108.331 81.3604 108.304 81.3516C108.184 81.3072 108.121 81.1683 108.166 81.0441Z" fill="#83BBDA"/>
<path d="M126.542 106.695C126.542 106.695 134.157 105.275 137.543 110.384C140.928 115.493 136.38 117.356 132.696 114.735C129.009 112.114 126.542 106.695 126.542 106.695Z" fill="#BDEAF5"/>
<path d="M136.872 103.094C137.174 102.956 140.529 102.688 144.608 104.587C148.687 106.486 151.164 110.596 148.915 112.204C146.666 113.812 145.037 113.001 142.748 111.009C140.455 109.017 136.872 103.094 136.872 103.094Z" fill="#BDEAF5"/>
<path d="M147.91 101.086C147.91 101.086 152.17 100.874 156.249 103.713C160.328 106.552 158.29 110.486 155.501 109.699C152.716 108.908 147.91 101.086 147.91 101.086Z" fill="#BDEAF5"/>
<path d="M151.151 100.256C151.151 100.256 157.275 103.859 161.525 104.014C165.775 104.17 167.705 98.3662 162.386 97.1816C157.067 95.9971 151.151 100.256 151.151 100.256Z" fill="#BDEAF5"/>
<path d="M144.31 99.1869C144.31 99.1869 147.467 98.5747 150.229 96.338C152.991 94.0979 154.506 89.7534 151.566 88.5655C148.627 87.3776 146.914 91.3813 145.815 94.2699C144.712 97.1586 144.31 99.1869 144.31 99.1869Z" fill="#BDEAF5"/>
<path d="M132.293 101.933C132.293 101.933 137.901 100.527 140.857 97.2213C143.813 93.9158 145.385 88.2048 140.716 87.6257C136.047 87.0467 132.293 101.933 132.293 101.933Z" fill="#BDEAF5"/>
<path d="M122.071 105.52C122.071 105.52 127.665 103.541 130.239 99.6533C132.814 95.7654 132.039 91.3051 128.869 90.875C125.698 90.4415 120.486 102.3 122.071 105.52Z" fill="#BDEAF5"/>
<path d="M110.064 112.343C110.111 112.313 113.54 110.262 119.02 107.83C122.929 104.997 127.856 97.281 127.903 97.2016C128.013 97.0262 128.251 96.9733 128.429 97.0824C128.61 97.1916 128.66 97.4266 128.55 97.6019C128.375 97.8766 124.859 103.386 121.337 106.834C122.815 106.218 124.403 105.593 126.086 104.981C127.189 104.58 128.362 104.177 129.599 103.78C134.499 99.9016 138.742 93.0589 138.786 92.9927C138.897 92.814 139.131 92.7578 139.312 92.867C139.493 92.9762 139.55 93.2078 139.44 93.3865C139.399 93.4493 135.843 99.1902 131.439 103.21C132.488 102.896 133.577 102.588 134.697 102.294C134.744 102.271 134.791 102.257 134.844 102.254C137.191 101.645 139.671 101.096 142.248 100.666C147.554 95.8946 149.937 92.1556 149.961 92.1192C150.072 91.9438 150.306 91.8876 150.487 91.9968C150.668 92.106 150.722 92.3376 150.611 92.5163C150.517 92.6651 148.402 95.9872 143.609 100.451C144.256 100.355 144.91 100.266 145.57 100.183C145.634 100.156 145.701 100.15 145.771 100.16C150.621 99.5806 155.713 99.4681 160.767 100.156C160.975 100.186 161.122 100.375 161.092 100.58C161.062 100.785 160.871 100.931 160.663 100.901C156.279 100.302 151.865 100.315 147.605 100.716C152.646 102.555 155.937 106.185 156.091 106.354C156.232 106.509 156.215 106.748 156.058 106.887C155.9 107.026 155.659 107.009 155.518 106.853C155.478 106.81 151.486 102.406 145.728 100.921C142.456 101.318 139.299 101.93 136.339 102.651C142.208 104.587 146.864 109.52 147.075 109.745C147.219 109.898 147.209 110.136 147.052 110.278C146.897 110.42 146.653 110.41 146.512 110.255C146.458 110.199 141.119 104.537 134.888 103.015C131.761 103.836 128.885 104.766 126.374 105.676C126.029 105.801 125.687 105.927 125.349 106.053C131.053 107.287 135.421 111.357 135.619 111.542C135.769 111.684 135.776 111.926 135.632 112.075C135.488 112.224 135.247 112.23 135.092 112.088C135.042 112.042 130.045 107.389 123.981 106.579C115.913 109.726 110.534 112.945 110.473 112.981C110.333 113.067 110.158 113.051 110.038 112.955C110.004 112.928 109.974 112.895 109.951 112.856C109.826 112.684 109.883 112.452 110.064 112.343Z" fill="#92CFEC"/>
<path d="M61.6048 80.5931C61.6048 80.5931 61.1153 78.499 56.3833 77.3166C51.6514 76.1343 47.0791 79.6266 47.0791 79.6266C47.0791 79.6266 51.4847 82.9579 55.8938 83.3863C60.2994 83.8147 61.6048 80.5931 61.6048 80.5931Z" fill="#92CFEC"/>
<path d="M55.6748 71.247C55.6748 71.247 52.519 68.3476 48.7105 67.3811C44.902 66.4146 39.0244 71.0345 39.0244 71.0345C39.0244 71.0345 43.7564 73.5056 48.9813 73.6118C54.2062 73.718 55.6748 71.247 55.6748 71.247Z" fill="#92CFEC"/>
<path d="M47.5127 62.3842C47.5127 62.3842 45.3359 60.1805 41.4719 59.3237C37.6079 58.4635 34.6152 62.8674 34.6152 62.8674C34.6152 62.8674 38.5313 64.372 42.7773 64.2623C47.0232 64.1561 47.5127 62.3842 47.5127 62.3842Z" fill="#92CFEC"/>
<path d="M46.4226 60.2353C46.4226 60.2353 46.315 56.3146 43.43 53.6276C40.545 50.9407 31.949 51.585 32.1122 51.7461C32.2753 51.9071 35.6498 56.8492 39.9478 58.46C44.2493 60.0742 46.4226 60.2353 46.4226 60.2353Z" fill="#92CFEC"/>
<path d="M51.5399 63.6729C51.5399 63.6729 49.2555 61.7913 48.8736 58.3573C48.4917 54.9232 52.3002 49.3334 52.3002 49.3334C52.3002 49.3334 53.8243 53.0382 53.7132 58.0865C53.6055 63.1382 51.5399 63.6729 51.5399 63.6729Z" fill="#92CFEC"/>
<path d="M59.4837 73.4508C59.4837 73.4508 57.3624 71.463 56.8729 66.1474C56.3834 60.8317 60.789 57.2332 60.789 57.2332C60.789 57.2332 63.2921 61.476 63.0734 66.5243C62.8547 71.5692 59.4837 73.4508 59.4837 73.4508Z" fill="#92CFEC"/>
<path d="M65.4688 82.8481C65.4688 82.8481 63.6739 81.0762 63.3476 77.1007C63.0213 73.1251 66.4478 67.4873 66.4478 67.4873C66.4478 67.4873 68.7322 71.1407 68.7878 76.2953C68.8399 81.4532 65.4688 82.8481 65.4688 82.8481Z" fill="#92CFEC"/>
<path d="M70.5892 95.3712C70.5683 95.3198 69.1414 91.4813 66.3085 86.0389C65.0032 81.2716 66.062 71.9153 66.0724 71.8194C66.0967 71.6069 65.9405 71.4115 65.7253 71.3875C65.51 71.3601 65.3121 71.5178 65.2878 71.7302C65.2496 72.0627 64.4928 78.7423 65.0899 83.7598C64.2984 82.3238 63.427 80.809 62.4653 79.2496C61.8369 78.2248 61.153 77.1521 60.417 76.0485C58.9901 69.8041 60.0282 61.5891 60.0386 61.5068C60.0664 61.2944 59.9136 61.099 59.6984 61.0716C59.4796 61.0442 59.2852 61.195 59.2575 61.4075C59.247 61.4829 58.3756 68.375 59.3061 74.4172C58.6638 73.4953 57.9868 72.5562 57.2751 71.6103C57.2543 71.5623 57.223 71.5212 57.1814 71.4869C55.6885 69.506 54.0429 67.4873 52.2446 65.4996C51.0746 58.2818 51.5884 53.751 51.5954 53.7031C51.6197 53.4906 51.4669 53.2952 51.2517 53.2712C51.0364 53.2438 50.8385 53.398 50.8142 53.6105C50.7934 53.7887 50.3317 57.8123 51.2899 64.4611C50.8316 63.971 50.3629 63.4843 49.8838 63.0011C49.8491 62.9394 49.8005 62.8914 49.738 62.8537C46.2038 59.3031 42.1662 55.9787 37.6425 53.3226C37.455 53.213 37.212 53.2747 37.1009 53.4597C36.9898 53.6448 37.0523 53.8847 37.2398 53.9944C41.1663 56.2975 44.7179 59.1146 47.8945 62.1443C42.6279 60.4273 37.6078 61.2601 37.3717 61.3012C37.1565 61.3389 37.0141 61.5411 37.0523 61.7502C37.0905 61.9627 37.2954 62.1032 37.5071 62.0655C37.5696 62.0552 43.659 61.0407 49.2763 63.5015C51.6544 65.9005 53.8034 68.399 55.7198 70.8632C49.7206 68.6971 42.7494 69.7185 42.4335 69.7664C42.2183 69.8007 42.0724 69.9995 42.1037 70.2086C42.1384 70.421 42.3398 70.5684 42.5515 70.5341C42.6314 70.5204 50.6302 69.3517 56.6467 72.0798C58.636 74.7291 60.3476 77.3063 61.7814 79.6368C61.9793 79.959 62.1702 80.2777 62.3612 80.593C56.9522 77.9644 50.776 78.4716 50.4983 78.4956C50.2831 78.5161 50.1234 78.7046 50.1407 78.9171C50.1616 79.1296 50.3525 79.2873 50.5677 79.2701C50.6406 79.2633 57.7021 78.6841 63.125 81.8851C67.5792 89.5518 69.8219 95.5666 69.8462 95.6317C69.9052 95.7893 70.0545 95.8887 70.2177 95.8887C70.2628 95.8887 70.3079 95.8819 70.3531 95.8647C70.5579 95.7962 70.6621 95.57 70.5892 95.3712Z" fill="#BDEAF5"/>
<path d="M55.6982 105.495C54.9176 104.703 46.3764 105.552 39.5543 102.832C32.7293 100.109 30.6122 95.6806 27.6234 93.8186C24.6346 91.9565 22.8942 90.5352 21.2874 86.7452C19.6806 82.9551 12.8312 77.6868 13.6969 77.5668C14.5626 77.4439 20.8925 77.9686 26.94 77.4559C32.9844 76.9431 36.7144 80.2745 38.9317 80.5683C41.149 80.8622 44.9579 81.6178 46.8775 84.1005C48.7972 86.5832 49.3773 87.8726 52.0138 90.4963C54.6533 93.1139 55.6982 105.495 55.6982 105.495Z" fill="#83BBDA"/>
<path d="M59.2185 109.012C59.1911 108.973 57.1621 106.154 53.6266 102.331C51.4883 98.7241 50.249 90.8561 50.2368 90.7781C50.2095 90.5982 50.0394 90.4753 49.8572 90.5023C49.6749 90.5293 49.5504 90.6972 49.5777 90.8771C49.6203 91.1559 50.5072 96.7751 52.12 100.739C51.1511 99.7406 50.1002 98.6971 48.9642 97.6296C48.22 96.931 47.4212 96.2054 46.5707 95.4647C44.0041 90.6822 43.0048 83.7467 42.9926 83.6777C42.9683 83.4978 42.7982 83.3719 42.616 83.3959C42.4338 83.4199 42.3062 83.5878 42.3305 83.7677C42.3396 83.8307 43.1779 89.6477 45.295 94.3763C44.566 93.7646 43.8006 93.1469 43.0048 92.5292C42.9774 92.4963 42.941 92.4693 42.9015 92.4483C41.237 91.1559 39.4389 89.8696 37.5253 88.6432C34.9465 83.0061 34.3482 79.195 34.3451 79.156C34.3178 78.9761 34.1477 78.8532 33.9655 78.8802C33.7832 78.9072 33.6587 79.0751 33.686 79.255C33.7073 79.4049 34.2388 82.7902 36.5138 88.0075C36.0279 87.7077 35.5358 87.4138 35.0377 87.123C34.9982 87.081 34.9435 87.051 34.8858 87.036C31.2014 84.9131 27.1617 83.081 22.8698 81.9056C22.6936 81.8577 22.5084 81.9596 22.4598 82.1335C22.4112 82.3074 22.5144 82.4903 22.6906 82.5383C26.4114 83.5578 29.947 85.078 33.2213 86.8561C28.5376 86.6072 24.6254 88.3883 24.4432 88.4723C24.2761 88.5503 24.2063 88.7452 24.2822 88.9101C24.3612 89.075 24.5586 89.144 24.7257 89.069C24.7743 89.048 29.5157 86.8861 34.655 87.6627C37.1365 89.099 39.4541 90.6702 41.5711 92.2594C36.1888 91.8036 30.7276 94.1664 30.4785 94.2743C30.3115 94.3493 30.2355 94.5412 30.3084 94.7091C30.3844 94.874 30.5818 94.952 30.7488 94.877C30.8126 94.8501 37.0788 92.1424 42.6038 93.051C44.8212 94.7781 46.8015 96.5052 48.4934 98.0944C48.7273 98.3133 48.9551 98.5322 49.1829 98.7481C44.1772 97.7856 39.2505 99.5517 39.0258 99.6356C38.8526 99.6986 38.7646 99.8875 38.8283 100.058C38.8921 100.229 39.0835 100.313 39.2566 100.253C39.3143 100.232 44.9487 98.2113 50.0941 99.6386C55.4551 104.919 58.6383 109.339 58.6717 109.387C58.7537 109.504 58.8995 109.549 59.0301 109.516C59.0666 109.507 59.103 109.489 59.1364 109.468C59.2883 109.366 59.3248 109.159 59.2185 109.012Z" fill="#92CFEC"/>
<path d="M42.2197 106.781C42.2197 106.781 34.9555 105.426 31.7274 110.3C28.4993 115.174 32.837 116.951 36.3529 114.449C39.8653 111.95 42.2197 106.781 42.2197 106.781Z" fill="#BDEAF5"/>
<path d="M32.3655 103.348C32.0777 103.218 28.8773 102.961 24.987 104.772C21.0966 106.583 18.7319 110.505 20.8782 112.039C23.0244 113.572 24.5778 112.799 26.7623 110.899C28.9467 108.996 32.3655 103.348 32.3655 103.348Z" fill="#BDEAF5"/>
<path d="M21.8349 101.431C21.8349 101.431 17.7711 101.229 13.8808 103.937C9.9904 106.644 11.9356 110.396 14.5916 109.646C17.251 108.893 21.8349 101.431 21.8349 101.431Z" fill="#BDEAF5"/>
<path d="M18.7454 100.64C18.7454 100.64 12.9029 104.077 8.84958 104.224C4.79624 104.371 2.95161 98.8366 8.02782 97.707C13.104 96.5775 18.7454 100.64 18.7454 100.64Z" fill="#BDEAF5"/>
<path d="M25.2709 99.6205C25.2709 99.6205 22.2577 99.0386 19.626 96.9027C16.9943 94.7668 15.5484 90.6217 18.35 89.4887C21.1516 88.3557 22.7882 92.1722 23.8354 94.9311C24.8825 97.69 25.2709 99.6205 25.2709 99.6205Z" fill="#BDEAF5"/>
<path d="M36.7309 102.239C36.7309 102.239 31.3843 100.897 28.5619 97.7447C25.7429 94.5922 24.2415 89.1463 28.6971 88.5918C33.1492 88.0407 36.7309 102.239 36.7309 102.239Z" fill="#BDEAF5"/>
<path d="M46.4845 105.662C46.4845 105.662 41.1483 103.776 38.6934 100.065C36.2385 96.355 36.977 92.1037 40.0006 91.693C43.0241 91.2788 47.9963 102.592 46.4845 105.662Z" fill="#BDEAF5"/>
<path d="M57.9335 112.169C57.8884 112.142 54.6152 110.184 49.3899 107.863C45.6625 105.162 40.9643 97.7995 40.9157 97.7242C40.8082 97.5565 40.5829 97.5051 40.413 97.6112C40.2396 97.7139 40.191 97.9398 40.2985 98.1076C40.465 98.3677 43.8179 103.625 47.1778 106.911C45.77 106.323 44.2548 105.727 42.6494 105.145C41.5953 104.762 40.4754 104.378 39.2999 103.998C34.6259 100.298 30.5761 93.7741 30.5379 93.7091C30.4339 93.538 30.2085 93.4866 30.0386 93.5893C29.8652 93.692 29.8132 93.9145 29.9173 94.0822C29.9554 94.1438 33.3499 99.6171 37.5489 103.454C36.5468 103.153 35.5101 102.862 34.4422 102.581C34.4006 102.561 34.352 102.547 34.3035 102.544C32.067 101.962 29.6988 101.438 27.2405 101.027C22.1816 96.4783 19.907 92.9116 19.8827 92.8739C19.7752 92.7062 19.5533 92.6549 19.38 92.7575C19.2101 92.8602 19.158 93.0827 19.2621 93.2539C19.3522 93.3942 21.3702 96.5638 25.9402 100.822C25.323 100.73 24.6989 100.644 24.0713 100.569C24.0123 100.545 23.9465 100.534 23.8806 100.545C19.2551 99.9936 14.3974 99.884 9.57773 100.541C9.38009 100.569 9.23793 100.75 9.26567 100.945C9.29341 101.14 9.47718 101.281 9.67482 101.253C13.8565 100.685 18.0693 100.695 22.133 101.079C17.3273 102.835 14.1859 106.295 14.0402 106.456C13.9085 106.603 13.9223 106.833 14.0714 106.963C14.2205 107.093 14.4528 107.079 14.5846 106.932C14.6227 106.891 18.4299 102.691 23.9257 101.27C27.0463 101.65 30.0594 102.232 32.8784 102.924C27.2786 104.772 22.8404 109.478 22.6393 109.691C22.504 109.838 22.511 110.064 22.6601 110.197C22.8092 110.331 23.038 110.324 23.1732 110.177C23.2253 110.122 28.3188 104.724 34.2584 103.273C37.2403 104.053 39.9865 104.943 42.3789 105.809C42.7083 105.929 43.0343 106.049 43.3567 106.169C37.913 107.346 33.7487 111.228 33.5614 111.406C33.4158 111.542 33.4124 111.772 33.551 111.912C33.6897 112.056 33.9186 112.059 34.0677 111.922C34.1162 111.878 38.8804 107.438 44.6674 106.668C52.3615 109.67 57.4966 112.741 57.5521 112.775C57.6873 112.857 57.8538 112.84 57.9682 112.747C57.9994 112.723 58.0306 112.689 58.0514 112.655C58.1624 112.494 58.1069 112.272 57.9335 112.169Z" fill="#92CFEC"/>
<path d="M87.5651 185C133.046 185 169.916 177.478 169.916 168.198C169.916 158.919 133.046 151.397 87.5651 151.397C42.084 151.397 5.21436 158.919 5.21436 168.198C5.21436 177.478 42.084 185 87.5651 185Z" fill="#CFD1D2"/>
<path d="M62.1322 54.2492C56.3542 56.9023 55.1011 62.4988 55.1011 62.4988C55.1011 62.4988 49.9597 59.8378 44.1777 62.4909C38.3956 65.144 34.1246 74.4875 42.7513 82.6377C51.378 90.7839 68.027 89.9327 68.027 89.9327C68.027 89.9327 79.4138 77.9122 78.6604 66.1503C77.9069 54.3924 67.9142 51.5961 62.1322 54.2492Z" fill="#C13D3D"/>
<path d="M71.4443 75.9075C67.56 82.3831 62.2051 86.488 57.1523 89.0934C63.0593 90.1872 68.0234 89.9366 68.0234 89.9366C68.0234 89.9366 79.4102 77.9162 78.6567 66.1543C78.0362 56.4488 71.1219 52.853 65.4769 53.382C65.4809 53.382 81.2516 59.5673 71.4443 75.9075Z" fill="#B02C2C"/>
<path d="M45.137 83.0235C45.137 83.0235 37.5458 77.2241 40.1124 70.2911C42.6751 63.358 50.4194 63.9587 50.4194 63.9587C50.4194 63.9587 37.8036 70.5536 45.137 83.0235Z" fill="#D95F5F"/>
<path d="M119.828 49.3987C114.404 46.6939 109.42 49.0726 109.42 49.0726C109.42 49.0726 108.401 43.7027 102.977 40.9979C97.5537 38.2931 87.9438 40.6519 86.8599 51.837C85.7761 63.0222 96.2482 74.8199 96.2482 74.8199C96.2482 74.8199 112.087 76.1365 120.561 68.6346C129.031 61.1368 125.251 52.1035 119.828 49.3987Z" fill="#C13D3D"/>
<path d="M108.905 69.0642C101.7 70.0149 95.4267 68.4835 90.4707 66.2878C93.13 71.2996 96.2487 74.8199 96.2487 74.8199C96.2487 74.8199 112.088 76.1365 120.561 68.6346C127.552 62.4454 126.198 55.214 122.463 51.3557C122.463 51.3557 127.085 66.6617 108.905 69.0642Z" fill="#B02C2C"/>
<path d="M87.9761 53.8259C87.9761 53.8259 87.8915 44.7927 94.6647 42.593C101.438 40.3934 105.552 46.4712 105.552 46.4712C105.552 46.4712 93.1014 41.0417 87.9761 53.8259Z" fill="#D95F5F"/>
<path d="M83.1369 23.9527C78.7208 24.8516 76.9359 28.5031 76.9359 28.5031C76.9359 28.5031 73.8333 25.846 69.4212 26.745C65.0051 27.6439 60.5245 33.3876 65.1179 40.3843C69.7113 47.377 81.3117 49.4653 81.3117 49.4653C81.3117 49.4653 91.1311 43.0215 92.5494 34.8037C93.9717 26.5819 87.553 23.0537 83.1369 23.9527Z" fill="#C13D3D"/>
<path d="M85.9776 40.3564C82.2344 44.1909 77.8747 46.1558 73.9663 47.1343C77.8546 48.8368 81.3117 49.4613 81.3117 49.4613C81.3117 49.4613 91.1311 43.0175 92.5494 34.7997C93.7219 28.0178 89.5556 24.4339 85.5828 23.8929C85.5828 23.8929 95.4223 30.6828 85.9776 40.3564Z" fill="#B02C2C"/>
<path d="M66.6972 41.0287C66.6972 41.0287 62.4301 35.818 65.3353 31.4585C68.2444 27.099 73.4744 28.7537 73.4744 28.7537C73.4744 28.7537 63.7034 31.2676 66.6972 41.0287Z" fill="#D95F5F"/>
<path d="M108.993 70.1506C100.559 68.6153 94.7693 73.7862 94.7693 73.7862C94.7693 73.7862 91.2275 66.9128 82.7942 65.3774C74.3609 63.8421 62.2972 70.803 65.3232 86.3755C68.3492 101.948 87.2828 113.821 87.2828 113.821C87.2828 113.821 109.263 109.398 117.72 95.9178C126.182 82.4416 117.43 71.686 108.993 70.1506Z" fill="#DC495D"/>
<path d="M102.11 101.069C92.7343 105.182 83.624 105.564 76.0288 104.533C81.6456 110.281 87.2867 113.825 87.2867 113.825C87.2867 113.825 109.266 109.402 117.724 95.9219C124.703 84.7964 119.96 75.5364 113.352 71.7736C113.348 71.7736 125.766 90.6873 102.11 101.069Z" fill="#C13D3D"/>
<path d="M67.6399 88.6348C67.6399 88.6348 63.8926 76.4353 72.1809 70.8029C80.4691 65.1706 88.4834 71.7894 88.4834 71.7894C88.4834 71.7894 69.441 69.3113 67.6399 88.6348Z" fill="#E08D8D"/>
<path d="M87.5771 108.379V108.375H28.8179V171.902L87.5972 176.651L146.356 171.906V108.379H87.5771Z" fill="#E2B860"/>
<path d="M141.07 144.01L96.7434 145.514C95.5386 145.554 94.5313 144.591 94.5192 143.394L94.4507 134.229C94.4427 133.072 95.3694 132.133 96.5299 132.117L140.8 131.477C141.984 131.461 142.963 132.404 142.98 133.581L143.104 141.882C143.125 143.028 142.218 143.971 141.07 144.01Z" fill="white"/>
<path d="M100.055 142.884L98.0942 142.94L98.0424 136.583L100.09 136.525C100.706 136.508 101.235 136.62 101.675 136.862C102.116 137.102 102.455 137.456 102.693 137.923C102.93 138.388 103.052 138.95 103.057 139.607C103.062 140.27 102.949 140.843 102.717 141.328C102.485 141.81 102.145 142.186 101.696 142.456C101.247 142.723 100.7 142.866 100.055 142.884ZM98.858 142.235L99.9997 142.203C100.525 142.188 100.96 142.074 101.303 141.861C101.647 141.649 101.902 141.353 102.069 140.973C102.235 140.594 102.317 140.146 102.312 139.629C102.308 139.115 102.221 138.676 102.05 138.311C101.88 137.943 101.627 137.664 101.292 137.475C100.958 137.284 100.542 137.195 100.046 137.21L98.8174 137.244L98.858 142.235ZM109.709 139.431C109.714 140.101 109.598 140.684 109.36 141.179C109.122 141.674 108.793 142.06 108.373 142.337C107.953 142.614 107.473 142.76 106.931 142.776C106.389 142.791 105.906 142.672 105.482 142.419C105.058 142.167 104.723 141.799 104.477 141.318C104.231 140.837 104.105 140.261 104.099 139.59C104.094 138.92 104.21 138.337 104.448 137.842C104.686 137.347 105.015 136.961 105.435 136.684C105.855 136.407 106.336 136.261 106.877 136.246C107.419 136.23 107.902 136.349 108.326 136.602C108.751 136.855 109.086 137.222 109.332 137.703C109.577 138.185 109.703 138.761 109.709 139.431ZM108.964 139.452C108.96 138.902 108.864 138.44 108.677 138.066C108.492 137.693 108.242 137.413 107.928 137.228C107.616 137.042 107.268 136.955 106.883 136.966C106.499 136.977 106.151 137.084 105.84 137.287C105.532 137.49 105.287 137.784 105.106 138.168C104.927 138.552 104.84 139.019 104.844 139.569C104.849 140.12 104.943 140.581 105.128 140.955C105.316 141.328 105.565 141.608 105.877 141.794C106.191 141.979 106.54 142.067 106.925 142.056C107.309 142.045 107.656 141.938 107.965 141.734C108.276 141.531 108.52 141.237 108.699 140.853C108.88 140.47 108.969 140.003 108.964 139.452ZM116.015 136.073L116.067 142.429L115.322 142.45L111.819 137.558L111.757 137.56L111.798 142.55L111.028 142.572L110.977 136.216L111.721 136.195L115.237 141.099L115.299 141.098L115.258 136.095L116.015 136.073ZM117.867 142.378L117.06 142.401L119.341 135.979L120.136 135.956L122.521 142.246L121.714 142.269L119.772 136.972L119.722 136.974L117.867 142.378ZM118.144 139.887L121.396 139.794L121.401 140.477L118.15 140.57L118.144 139.887ZM122.374 136.575L122.369 135.893L127.134 135.757L127.14 136.44L125.142 136.497L125.188 142.17L124.418 142.192L124.372 136.519L122.374 136.575ZM129.091 135.702L129.143 142.058L128.373 142.08L128.322 135.724L129.091 135.702ZM136.021 138.684C136.026 139.354 135.91 139.937 135.672 140.432C135.434 140.927 135.105 141.313 134.685 141.59C134.265 141.867 133.784 142.013 133.242 142.028C132.701 142.044 132.218 141.925 131.794 141.672C131.369 141.419 131.034 141.052 130.788 140.571C130.542 140.089 130.417 139.513 130.411 138.843C130.406 138.173 130.522 137.59 130.76 137.095C130.998 136.6 131.327 136.214 131.747 135.937C132.167 135.66 132.647 135.514 133.189 135.498C133.731 135.483 134.214 135.602 134.638 135.855C135.062 136.107 135.397 136.475 135.643 136.956C135.889 137.437 136.015 138.013 136.021 138.684ZM135.276 138.705C135.271 138.155 135.176 137.693 134.988 137.319C134.803 136.946 134.554 136.666 134.24 136.481C133.928 136.295 133.58 136.208 133.195 136.218C132.81 136.229 132.463 136.337 132.152 136.54C131.843 136.743 131.599 137.037 131.418 137.421C131.239 137.804 131.151 138.272 131.156 138.822C131.16 139.372 131.255 139.834 131.44 140.208C131.627 140.581 131.877 140.861 132.189 141.046C132.503 141.232 132.852 141.319 133.237 141.308C133.621 141.297 133.968 141.19 134.277 140.987C134.587 140.784 134.832 140.49 135.011 140.106C135.192 139.722 135.28 139.255 135.276 138.705ZM142.327 135.326L142.378 141.682L141.634 141.703L138.131 136.811L138.069 136.813L138.11 141.803L137.34 141.825L137.288 135.469L138.033 135.448L141.548 140.352L141.61 140.35L141.57 135.347L142.327 135.326Z" fill="#C13D3D"/>
<path d="M97.6059 125.769C97.6059 125.769 130.674 132.495 146.356 134.929V108.375H87.5811L97.6059 125.769Z" fill="#CFD1D2"/>
<path d="M87.5972 176.651L28.8179 171.902V108.375H87.5771L87.5972 176.651Z" fill="#F4DA7D"/>
<path d="M28.8179 133.939C41.4819 132.225 78.4306 125.033 78.4306 125.033L87.573 108.375H28.8179V133.939Z" fill="#CFD1D2"/>
<path d="M87.5769 108.371L75.3923 120.379H16.9917L28.8177 108.371H87.5769Z" fill="#E2B860"/>
<path d="M87.5771 108.371L99.7577 120.379H158.162L146.336 108.371H87.5771Z" fill="#F4DA7D"/>
<path d="M52.5944 20.2612C52.2246 20.1351 51.8885 20.0091 51.5859 19.883C51.2834 19.7486 51.0229 19.5889 50.8044 19.404C50.5859 19.2191 50.4136 19.0006 50.2876 18.7485C50.1699 18.488 50.1111 18.1729 50.1111 17.8031C50.1111 17.0888 50.3842 16.5174 50.9305 16.0888C51.4851 15.6602 52.2582 15.4459 53.2499 15.4459C53.6112 15.4459 53.9474 15.4711 54.2583 15.5215C54.5692 15.572 54.8339 15.6518 55.0524 15.761C55.2793 15.8619 55.4558 15.9963 55.5819 16.1644C55.7079 16.3241 55.7709 16.5132 55.7709 16.7317C55.7709 16.9502 55.7205 17.1392 55.6197 17.2989C55.5188 17.4502 55.397 17.5804 55.2541 17.6897C55.0692 17.572 54.8213 17.4712 54.5104 17.3871C54.1995 17.2947 53.8591 17.2485 53.4894 17.2485C53.1112 17.2485 52.8339 17.3031 52.6574 17.4124C52.4809 17.5132 52.3927 17.6435 52.3927 17.8031C52.3927 17.9292 52.4473 18.0342 52.5566 18.1183C52.6658 18.1939 52.8297 18.2653 53.0482 18.3325L53.7163 18.5468C54.5062 18.7989 55.1113 19.1225 55.5314 19.5175C55.96 19.904 56.1743 20.4334 56.1743 21.1057C56.1743 21.82 55.8928 22.3999 55.3297 22.8453C54.7667 23.2823 53.9389 23.5008 52.8465 23.5008C52.4599 23.5008 52.0986 23.4671 51.7624 23.3999C51.4347 23.3411 51.1448 23.2529 50.8926 23.1352C50.6489 23.0091 50.4557 22.8579 50.3128 22.6814C50.1783 22.4965 50.1111 22.2864 50.1111 22.0511C50.1111 21.8074 50.1825 21.6015 50.3254 21.4335C50.4683 21.257 50.6237 21.1225 50.7918 21.0301C51.0271 21.215 51.3128 21.3746 51.649 21.5091C51.9935 21.6436 52.3675 21.7108 52.7708 21.7108C53.1826 21.7108 53.4725 21.6478 53.6406 21.5217C53.8087 21.3957 53.8927 21.2486 53.8927 21.0805C53.8927 20.9125 53.8255 20.7864 53.691 20.7024C53.5566 20.6099 53.3675 20.5217 53.1238 20.4376L52.5944 20.2612ZM60.1053 16.9838C60.4499 16.9838 60.786 17.0342 61.1137 17.135C61.4499 17.2275 61.7398 17.3703 61.9835 17.5636C62.2356 17.3955 62.5171 17.2569 62.8281 17.1476C63.1474 17.0384 63.5298 16.9838 63.9752 16.9838C64.2945 16.9838 64.6054 17.0258 64.908 17.1098C65.2189 17.1939 65.492 17.3283 65.7273 17.5132C65.971 17.6897 66.1643 17.9292 66.3072 18.2317C66.45 18.5258 66.5215 18.8872 66.5215 19.3158V23.2865C66.4374 23.3117 66.303 23.3369 66.1181 23.3621C65.9416 23.3873 65.7567 23.3999 65.5635 23.3999C65.3786 23.3999 65.2105 23.3873 65.0592 23.3621C64.9164 23.3369 64.7945 23.2865 64.6937 23.2108C64.5928 23.1352 64.513 23.0344 64.4542 22.9083C64.4038 22.7738 64.3785 22.6016 64.3785 22.3915V19.3788C64.3785 19.1267 64.3071 18.946 64.1643 18.8368C64.0214 18.7191 63.8281 18.6603 63.5844 18.6603C63.4668 18.6603 63.3407 18.6897 63.2062 18.7485C63.0718 18.7989 62.9709 18.8536 62.9037 18.9124C62.9121 18.946 62.9163 18.9796 62.9163 19.0132C62.9163 19.0384 62.9163 19.0637 62.9163 19.0889V23.2865C62.8239 23.3117 62.6852 23.3369 62.5003 23.3621C62.3239 23.3873 62.1432 23.3999 61.9583 23.3999C61.7734 23.3999 61.6054 23.3873 61.4541 23.3621C61.3112 23.3369 61.1894 23.2865 61.0885 23.2108C60.9877 23.1352 60.9079 23.0344 60.849 22.9083C60.7986 22.7738 60.7734 22.6016 60.7734 22.3915V19.3788C60.7734 19.1267 60.6936 18.946 60.5339 18.8368C60.3826 18.7191 60.1978 18.6603 59.9793 18.6603C59.828 18.6603 59.6977 18.6855 59.5885 18.7359C59.4792 18.7779 59.3868 18.82 59.3112 18.862V23.2865C59.2271 23.3117 59.0927 23.3369 58.9078 23.3621C58.7313 23.3873 58.5465 23.3999 58.3532 23.3999C58.1683 23.3999 58.0002 23.3873 57.849 23.3621C57.7061 23.3369 57.5842 23.2865 57.4834 23.2108C57.3826 23.1352 57.3027 23.0344 57.2439 22.9083C57.1935 22.7738 57.1683 22.6016 57.1683 22.3915V18.5847C57.1683 18.3578 57.2145 18.1771 57.3069 18.0426C57.4078 17.9082 57.5422 17.7821 57.7103 17.6645C57.996 17.4628 58.349 17.2989 58.7691 17.1729C59.1977 17.0468 59.6431 16.9838 60.1053 16.9838ZM70.4506 21.9377C70.5935 21.9377 70.7489 21.9251 70.917 21.8999C71.0935 21.8663 71.2237 21.8242 71.3078 21.7738V20.7654L70.4002 20.841C70.1649 20.8578 69.9716 20.9082 69.8203 20.9923C69.6691 21.0763 69.5934 21.2024 69.5934 21.3704C69.5934 21.5385 69.6565 21.6772 69.7825 21.7864C69.917 21.8873 70.1397 21.9377 70.4506 21.9377ZM70.3498 16.9838C70.8036 16.9838 71.2153 17.03 71.5851 17.1224C71.9633 17.2149 72.2826 17.3577 72.5431 17.551C72.812 17.7359 73.0179 17.9754 73.1608 18.2695C73.3036 18.5552 73.3751 18.8956 73.3751 19.2906V22.1142C73.3751 22.3327 73.312 22.5133 73.186 22.6562C73.0683 22.7907 72.9255 22.9083 72.7574 23.0091C72.2112 23.3369 71.4422 23.5008 70.4506 23.5008C70.0052 23.5008 69.6018 23.4587 69.2405 23.3747C68.8875 23.2907 68.5808 23.1646 68.3203 22.9965C68.0682 22.8285 67.8707 22.6142 67.7278 22.3537C67.5934 22.0932 67.5262 21.7906 67.5262 21.4461C67.5262 20.8662 67.6984 20.4208 68.043 20.1099C68.3875 19.799 68.9211 19.6057 69.6439 19.5301L71.2952 19.3536V19.2653C71.2952 19.0216 71.1859 18.8494 70.9674 18.7485C70.7573 18.6393 70.4506 18.5847 70.0472 18.5847C69.7279 18.5847 69.417 18.6183 69.1144 18.6855C68.8119 18.7527 68.5388 18.8368 68.2951 18.9376C68.1858 18.862 68.0934 18.7485 68.0178 18.5973C67.9421 18.4376 67.9043 18.2737 67.9043 18.1056C67.9043 17.8872 67.9547 17.7149 68.0556 17.5888C68.1648 17.4544 68.3287 17.3409 68.5472 17.2485C68.7909 17.156 69.0766 17.0888 69.4044 17.0468C69.7405 17.0048 70.0556 16.9838 70.3498 16.9838ZM76.8661 23.2865C76.7736 23.3033 76.635 23.3243 76.4501 23.3495C76.2736 23.3831 76.0929 23.3999 75.908 23.3999C75.7232 23.3999 75.5551 23.3873 75.4038 23.3621C75.261 23.3369 75.1391 23.2865 75.0383 23.2108C74.9374 23.1352 74.8576 23.0344 74.7988 22.9083C74.7484 22.7738 74.7231 22.6016 74.7231 22.3915V15.0804C74.8156 15.0635 74.95 15.0425 75.1265 15.0173C75.3114 14.9837 75.4963 14.9669 75.6812 14.9669C75.866 14.9669 76.0299 14.9795 76.1728 15.0047C76.324 15.0299 76.4501 15.0804 76.5509 15.156C76.6518 15.2316 76.7274 15.3367 76.7778 15.4711C76.8366 15.5972 76.8661 15.7652 76.8661 15.9753V23.2865ZM80.399 23.2865C80.3066 23.3033 80.1679 23.3243 79.983 23.3495C79.8066 23.3831 79.6259 23.3999 79.441 23.3999C79.2561 23.3999 79.0881 23.3873 78.9368 23.3621C78.7939 23.3369 78.6721 23.2865 78.5712 23.2108C78.4704 23.1352 78.3906 23.0344 78.3317 22.9083C78.2813 22.7738 78.2561 22.6016 78.2561 22.3915V15.0804C78.3485 15.0635 78.483 15.0425 78.6595 15.0173C78.8443 14.9837 79.0292 14.9669 79.2141 14.9669C79.399 14.9669 79.5629 14.9795 79.7057 15.0047C79.857 15.0299 79.983 15.0804 80.0839 15.156C80.1847 15.2316 80.2604 15.3367 80.3108 15.4711C80.3696 15.5972 80.399 15.7652 80.399 15.9753V23.2865ZM88.3337 17.1981C87.6866 17.1981 87.1908 17.3955 86.8463 17.7905C86.5017 18.1855 86.3295 18.7443 86.3295 19.467C86.3295 20.1981 86.5185 20.7612 86.8967 21.1562C87.2833 21.5511 87.8001 21.7486 88.4472 21.7486C88.7917 21.7486 89.0816 21.7024 89.3169 21.6099C89.5606 21.5175 89.7917 21.4125 90.0102 21.2948C90.1531 21.4125 90.2623 21.5553 90.338 21.7234C90.422 21.8831 90.464 22.0721 90.464 22.2906C90.464 22.6352 90.2707 22.9293 89.8842 23.173C89.506 23.4083 88.9262 23.526 88.1446 23.526C87.5816 23.526 87.0522 23.4461 86.5564 23.2865C86.0605 23.1268 85.6278 22.8831 85.258 22.5554C84.8882 22.2192 84.5941 21.799 84.3756 21.2948C84.1655 20.7822 84.0605 20.1729 84.0605 19.467C84.0605 18.8116 84.1613 18.2359 84.363 17.7401C84.5731 17.2359 84.8546 16.8115 85.2076 16.4669C85.5689 16.1224 85.9891 15.8619 86.4681 15.6854C86.9471 15.5089 87.4597 15.4207 88.006 15.4207C88.7791 15.4207 89.3758 15.5468 89.7959 15.7989C90.2245 16.051 90.4388 16.3745 90.4388 16.7695C90.4388 16.988 90.3842 17.1771 90.2749 17.3367C90.1657 17.4964 90.0396 17.6224 89.8968 17.7149C89.6783 17.572 89.443 17.4502 89.1909 17.3493C88.9472 17.2485 88.6615 17.1981 88.3337 17.1981ZM97.5267 23.2865C97.4427 23.3117 97.3082 23.3369 97.1233 23.3621C96.9468 23.3873 96.762 23.3999 96.5687 23.3999C96.3838 23.3999 96.2157 23.3873 96.0645 23.3621C95.9216 23.3369 95.7998 23.2865 95.6989 23.2108C95.5981 23.1352 95.5182 23.0344 95.4594 22.9083C95.409 22.7738 95.3838 22.6016 95.3838 22.3915V19.5931C95.3838 19.2485 95.2955 19.009 95.1191 18.8746C94.951 18.7317 94.7409 18.6603 94.4888 18.6603C94.3207 18.6603 94.1611 18.6813 94.0098 18.7233C93.8585 18.7653 93.7367 18.8158 93.6442 18.8746V23.2865C93.5602 23.3117 93.4257 23.3369 93.2409 23.3621C93.0644 23.3873 92.8795 23.3999 92.6862 23.3999C92.5013 23.3999 92.3333 23.3873 92.182 23.3621C92.0391 23.3369 91.9173 23.2865 91.8164 23.2108C91.7156 23.1352 91.6358 23.0344 91.5769 22.9083C91.5265 22.7738 91.5013 22.6016 91.5013 22.3915V15.0804C91.5938 15.0635 91.7282 15.0425 91.9047 15.0173C92.0896 14.9837 92.2744 14.9669 92.4593 14.9669C92.6442 14.9669 92.8081 14.9795 92.9509 15.0047C93.1022 15.0299 93.2283 15.0804 93.3291 15.156C93.4299 15.2316 93.5056 15.3367 93.556 15.4711C93.6148 15.5972 93.6442 15.7652 93.6442 15.9753V17.2107C93.7535 17.1686 93.9173 17.1224 94.1358 17.072C94.3627 17.0132 94.6106 16.9838 94.8796 16.9838C95.7115 16.9838 96.3586 17.1939 96.8208 17.614C97.2914 18.0258 97.5267 18.6435 97.5267 19.467V23.2865ZM101.472 21.9377C101.615 21.9377 101.77 21.9251 101.938 21.8999C102.115 21.8663 102.245 21.8242 102.329 21.7738V20.7654L101.421 20.841C101.186 20.8578 100.993 20.9082 100.841 20.9923C100.69 21.0763 100.615 21.2024 100.615 21.3704C100.615 21.5385 100.678 21.6772 100.804 21.7864C100.938 21.8873 101.161 21.9377 101.472 21.9377ZM101.371 16.9838C101.825 16.9838 102.236 17.03 102.606 17.1224C102.984 17.2149 103.304 17.3577 103.564 17.551C103.833 17.7359 104.039 17.9754 104.182 18.2695C104.325 18.5552 104.396 18.8956 104.396 19.2906V22.1142C104.396 22.3327 104.333 22.5133 104.207 22.6562C104.089 22.7907 103.947 22.9083 103.778 23.0091C103.232 23.3369 102.463 23.5008 101.472 23.5008C101.026 23.5008 100.623 23.4587 100.262 23.3747C99.9086 23.2907 99.6019 23.1646 99.3414 22.9965C99.0893 22.8285 98.8918 22.6142 98.7489 22.3537C98.6145 22.0932 98.5472 21.7906 98.5472 21.4461C98.5472 20.8662 98.7195 20.4208 99.0641 20.1099C99.4086 19.799 99.9422 19.6057 100.665 19.5301L102.316 19.3536V19.2653C102.316 19.0216 102.207 18.8494 101.989 18.7485C101.778 18.6393 101.472 18.5847 101.068 18.5847C100.749 18.5847 100.438 18.6183 100.136 18.6855C99.833 18.7527 99.5599 18.8368 99.3162 18.9376C99.2069 18.862 99.1145 18.7485 99.0388 18.5973C98.9632 18.4376 98.9254 18.2737 98.9254 18.1056C98.9254 17.8872 98.9758 17.7149 99.0767 17.5888C99.1859 17.4544 99.3498 17.3409 99.5683 17.2485C99.812 17.156 100.098 17.0888 100.425 17.0468C100.762 17.0048 101.077 16.9838 101.371 16.9838ZM109.589 19.4166C109.589 19.1561 109.513 18.967 109.362 18.8494C109.219 18.7233 109.022 18.6603 108.77 18.6603C108.601 18.6603 108.433 18.6813 108.265 18.7233C108.106 18.7653 107.967 18.8284 107.849 18.9124V23.2865C107.765 23.3117 107.631 23.3369 107.446 23.3621C107.269 23.3873 107.085 23.3999 106.891 23.3999C106.706 23.3999 106.538 23.3873 106.387 23.3621C106.244 23.3369 106.122 23.2865 106.022 23.2108C105.921 23.1352 105.841 23.0344 105.782 22.9083C105.732 22.7738 105.706 22.6016 105.706 22.3915V18.6099C105.706 18.383 105.753 18.1981 105.845 18.0552C105.946 17.9124 106.08 17.7821 106.248 17.6645C106.534 17.4628 106.891 17.2989 107.32 17.1729C107.757 17.0468 108.24 16.9838 108.77 16.9838C109.719 16.9838 110.45 17.1939 110.963 17.614C111.475 18.0258 111.732 18.6015 111.732 19.341V23.2865C111.648 23.3117 111.513 23.3369 111.328 23.3621C111.152 23.3873 110.967 23.3999 110.774 23.3999C110.589 23.3999 110.421 23.3873 110.27 23.3621C110.127 23.3369 110.005 23.2865 109.904 23.2108C109.803 23.1352 109.723 23.0344 109.665 22.9083C109.614 22.7738 109.589 22.6016 109.589 22.3915V19.4166ZM116.043 16.9838C116.522 16.9838 116.955 17.0468 117.341 17.1729C117.736 17.2905 118.068 17.446 118.337 17.6393C118.505 17.7569 118.635 17.8872 118.728 18.03C118.829 18.1729 118.879 18.3578 118.879 18.5847V22.9965C118.879 23.4419 118.795 23.8243 118.627 24.1436C118.459 24.4714 118.228 24.7403 117.934 24.9504C117.648 25.1689 117.308 25.3285 116.913 25.4294C116.526 25.5302 116.11 25.5806 115.665 25.5806C114.9 25.5806 114.299 25.4756 113.862 25.2655C113.425 25.0638 113.207 24.7319 113.207 24.2697C113.207 24.0764 113.245 23.9041 113.32 23.7529C113.404 23.61 113.497 23.5008 113.597 23.4251C113.841 23.5596 114.114 23.673 114.417 23.7655C114.728 23.8579 115.047 23.9041 115.375 23.9041C115.829 23.9041 116.19 23.8285 116.459 23.6772C116.728 23.526 116.862 23.2823 116.862 22.9461V22.7444C116.518 22.8957 116.098 22.9713 115.602 22.9713C115.224 22.9713 114.862 22.9167 114.518 22.8075C114.182 22.6898 113.883 22.5133 113.623 22.278C113.371 22.0343 113.165 21.7234 113.005 21.3452C112.854 20.9671 112.778 20.5175 112.778 19.9965C112.778 19.4838 112.858 19.0384 113.018 18.6603C113.186 18.2821 113.413 17.9712 113.698 17.7275C113.992 17.4754 114.337 17.2905 114.732 17.1729C115.135 17.0468 115.572 16.9838 116.043 16.9838ZM116.824 18.8116C116.766 18.7779 116.677 18.7443 116.56 18.7107C116.451 18.6771 116.312 18.6603 116.144 18.6603C115.732 18.6603 115.421 18.7779 115.211 19.0132C115.009 19.2401 114.908 19.5679 114.908 19.9965C114.908 20.4839 115.009 20.8368 115.211 21.0553C115.421 21.2654 115.686 21.3704 116.005 21.3704C116.35 21.3704 116.623 21.2906 116.824 21.1309V18.8116ZM123.447 23.5008C122.951 23.5008 122.489 23.4335 122.061 23.2991C121.64 23.1562 121.271 22.9461 120.951 22.6688C120.64 22.3915 120.392 22.0427 120.208 21.6226C120.031 21.2024 119.943 20.7108 119.943 20.1477C119.943 19.5931 120.031 19.1183 120.208 18.7233C120.392 18.3199 120.632 17.9922 120.926 17.7401C121.22 17.4796 121.556 17.2905 121.934 17.1729C122.313 17.0468 122.699 16.9838 123.094 16.9838C123.54 16.9838 123.943 17.051 124.304 17.1855C124.674 17.3199 124.989 17.5048 125.25 17.7401C125.519 17.9754 125.724 18.2569 125.867 18.5847C126.019 18.9124 126.094 19.2695 126.094 19.6561C126.094 19.9418 126.014 20.1603 125.855 20.3116C125.695 20.4629 125.472 20.5595 125.187 20.6015L122.073 21.0679C122.166 21.3452 122.355 21.5553 122.64 21.6982C122.926 21.8326 123.254 21.8999 123.624 21.8999C123.968 21.8999 124.292 21.8579 124.594 21.7738C124.905 21.6814 125.157 21.5763 125.351 21.4587C125.485 21.5427 125.598 21.6604 125.691 21.8116C125.783 21.9629 125.83 22.1226 125.83 22.2906C125.83 22.6688 125.653 22.9503 125.3 23.1352C125.031 23.2781 124.729 23.3747 124.393 23.4251C124.056 23.4755 123.741 23.5008 123.447 23.5008ZM123.094 18.5468C122.892 18.5468 122.716 18.5805 122.565 18.6477C122.422 18.7149 122.304 18.8031 122.212 18.9124C122.119 19.0132 122.048 19.1309 121.998 19.2653C121.955 19.3914 121.93 19.5217 121.922 19.6561L124.077 19.3032C124.052 19.1351 123.96 18.967 123.8 18.7989C123.64 18.6309 123.405 18.5468 123.094 18.5468Z" fill="#DC495D"/>
</svg>
