<svg width="16" height="17" viewBox="0 0 16 17" fill="none" xmlns="http://www.w3.org/2000/svg">
<g opacity="0.5">
<path d="M8.20485 11.4125L15.9976 8.41305V13.1664C15.9972 13.2814 15.9622 13.3938 15.897 13.4885C15.8317 13.5834 15.7394 13.6564 15.632 13.6977L8.20487 16.5542C8.08334 16.5999 7.94931 16.5999 7.82777 16.5542L0.400663 13.6977C0.286909 13.662 0.187183 13.5916 0.115386 13.4962C0.0437173 13.4009 0.00354573 13.2856 0.000741388 13.1664V8.41303L7.79349 11.4124C7.92586 11.4636 8.07252 11.4636 8.20491 11.4124L8.20485 11.4125ZM15.9976 3.45418C16.0008 3.41236 16.0008 3.37027 15.9976 3.32844V3.28279C15.982 3.24491 15.9629 3.20857 15.9405 3.17426C15.912 3.13626 15.8772 3.10336 15.8377 3.07709H15.8034C15.7659 3.05171 15.7256 3.03067 15.6834 3.01422L8.25626 0.728953C8.14825 0.696306 8.03297 0.696306 7.92497 0.728953L0.314224 3.01422C0.272012 3.03067 0.231716 3.05171 0.194222 3.07709H0.159916C0.120384 3.10336 0.0855701 3.13626 0.0571316 3.17426C0.0346871 3.20857 0.0155594 3.24492 0 3.28279V3.32844V3.45418H0.000760815V4.91104L7.99919 7.98466L15.9976 4.90529L15.9976 3.45418ZM7.7935 9.16735L0.000747862 6.13362V7.19056L7.99917 10.2699L15.9976 7.19056V6.13362L8.20485 9.12729C8.07247 9.17843 7.92589 9.21848 7.7935 9.16735Z" fill="#00938F"/>
</g>
</svg>
