<svg width="150" height="150" viewBox="0 0 150 150" fill="none" xmlns="http://www.w3.org/2000/svg">
<g clip-path="url(#clip0_727_1373)">
<path fill-rule="evenodd" clip-rule="evenodd" d="M71.5575 0.380178C65.9281 0.728957 61.8311 1.34068 56.8376 2.57803C47.8922 4.79463 39.3708 8.74136 31.6824 14.2288C14.8046 26.2751 3.60475 44.8645 0.962756 65.2168C0.151086 71.4689 0.151086 78.5309 0.962756 84.783C4.90348 115.139 27.5462 140.321 57.4231 147.573C75.0822 151.86 93.9288 149.509 109.863 141.031C128.557 131.085 142.343 113.536 147.407 93.2372C152.91 71.1789 148.25 48.1843 134.612 30.0941C126.837 19.7813 116.394 11.5492 104.62 6.45283C97.1839 3.23384 89.8265 1.37715 81.372 0.585988C79.6704 0.42676 73.0476 0.287893 71.5575 0.380178ZM71.2646 5.08174C69.6135 5.16831 65.8471 5.57495 64.0136 5.8647C43.1141 9.16777 24.7391 21.9192 14.0995 40.5028C3.75182 58.5767 2.13141 80.825 9.74113 100.342C13.2562 109.357 18.4074 117.259 25.2685 124.16C28.6565 127.568 31.0177 129.598 31.2723 129.322C31.6263 128.939 40.7366 116.735 40.8084 116.548C40.8509 116.438 40.1208 115.673 39.0582 114.715C36.6387 112.535 34.2597 109.936 32.2026 107.226C24.9576 97.6831 21.0695 85.5411 21.4375 73.6083C21.6896 65.4386 23.3716 58.6483 26.9536 51.3427C33.2634 38.4731 44.5033 28.6849 58.2556 24.0838C62.1948 22.7658 68.536 21.5393 71.4357 21.5344C72.7811 21.5321 72.6562 22.3886 72.6562 13.1678C72.6562 5.45732 72.6412 4.98198 72.3998 5.00806C72.2589 5.02329 71.748 5.05654 71.2646 5.08174ZM77.3437 13.2491V21.5331L78.186 21.5346C81.078 21.5394 86.6043 22.5192 90.6245 23.74C109.295 29.4096 123.677 45.2286 127.505 64.3065C129.401 73.7574 128.791 83.2475 125.703 92.3218C125.173 93.8794 125.141 94.0555 125.364 94.1707C125.499 94.2409 128.861 95.6999 132.834 97.4132C137.562 99.4519 140.107 100.479 140.201 100.384C140.281 100.305 140.703 99.2089 141.141 97.9483C146.592 82.2434 146.279 65.109 140.259 49.6581C136.721 40.5752 131.595 32.7383 124.585 25.6943C118.763 19.8441 112.908 15.6277 105.688 12.0868C97.2872 7.96616 88.7803 5.75542 78.6254 5.05361L77.3437 4.96514V13.2491ZM71.4843 26.1642C63.5611 26.8739 56.52 29.0788 50.2545 32.8123C30.6195 44.512 21.619 67.5578 28.1999 89.2821C32.8635 104.677 45.3181 117.127 60.7342 121.804C71.051 124.934 82.0206 124.596 92.0894 120.838C105.32 115.899 115.876 105.336 120.853 92.0558C124.086 83.4295 124.785 73.6115 122.808 64.5995C118.705 45.8929 103.993 31.1989 85.3271 27.1659C82.0339 26.4542 79.7374 26.2108 75.8056 26.156C73.7914 26.128 71.8468 26.1317 71.4843 26.1642ZM73.5909 31.0449C71.8625 31.3205 69.9011 32.2099 68.583 33.3162C64.3044 36.9066 63.6427 43.3011 67.1051 47.5979L67.8074 48.4692L66.8607 48.9988C61.6653 51.9041 58.1542 57.6566 58.1542 63.263C58.1542 64.8412 58.4101 65.4088 59.3353 65.8832L59.982 66.2148L75.3172 66.1761C90.6178 66.1377 90.6532 66.1369 91.0659 65.8311C91.2934 65.6625 91.635 65.3 91.8253 65.0255C92.1544 64.5503 92.167 64.4451 92.0853 62.8417C91.7948 57.1457 88.6695 52.1122 83.5454 49.0874L82.4961 48.4681L83.2202 47.5114C84.1118 46.3335 84.5381 45.5056 84.9833 44.088C85.271 43.1719 85.3253 42.6939 85.3167 41.162C85.3079 39.6096 85.2496 39.1602 84.9333 38.2079C84.3464 36.441 83.5865 35.2166 82.2653 33.9087C80.9624 32.6189 79.3565 31.6893 77.7099 31.2717C76.6262 30.9969 74.5942 30.885 73.5909 31.0449ZM73.6083 35.7915C70.7859 36.7323 69.1007 39.3802 69.5919 42.1024C69.8043 43.279 70.2232 44.1169 71.0532 45.0251C73.7292 47.953 78.5223 47.1617 80.2572 43.5058C80.5902 42.8042 80.6396 42.5108 80.6396 41.2353C80.6396 39.9525 80.5908 39.6663 80.247 38.9328C79.7073 37.7816 78.6683 36.7146 77.5512 36.1646C76.7996 35.7945 76.4046 35.7002 75.4118 35.6535C74.639 35.6171 73.9802 35.6675 73.6083 35.7915ZM72.5788 51.7769C68.414 52.7343 65.0637 55.6111 63.5793 59.5042C63.3556 60.091 63.1326 60.7853 63.084 61.0473L62.9955 61.5233H75.1407H87.286L86.9923 60.4613C86.3847 58.2642 84.92 56.0311 83.0021 54.3774C81.9956 53.5096 79.6282 52.2705 78.2958 51.914C77.0866 51.5904 73.7391 51.5101 72.5788 51.7769ZM45.6532 53.7569C44.3659 53.9907 43.0064 54.4747 42.0636 55.0353C36.686 58.2323 35.3069 65.2993 39.1064 70.1888C39.4996 70.6949 39.7887 71.1616 39.7489 71.2262C39.709 71.2906 39.368 71.501 38.991 71.6936C37.2024 72.6078 34.9313 74.5981 33.4634 76.538C32.5836 77.7006 31.2995 80.3335 30.8554 81.8857C30.423 83.397 30.1131 85.7234 30.2101 86.732C30.2853 87.5146 30.5914 88.0433 31.2575 88.5406C31.6591 88.8406 31.7673 88.843 46.9971 88.8812L62.3322 88.9199L62.9864 88.5882C63.9696 88.09 64.2384 87.5167 64.2108 85.977C64.1046 80.0949 60.3869 74.1866 55.0974 71.4935L54.4575 71.1677L54.8996 70.7034C55.6407 69.9251 56.4986 68.4594 56.9103 67.2682C57.4413 65.7321 57.5731 63.2434 57.2101 61.6117C56.4018 57.9784 53.4294 54.9187 49.7929 53.9763C48.6818 53.6885 46.6298 53.5796 45.6532 53.7569ZM101.587 53.6949C101.426 53.7321 100.931 53.8345 100.488 53.9223C99.4422 54.1297 97.5529 55.0194 96.5331 55.7848C94.7715 57.1068 93.2737 59.4364 92.7913 61.6042C92.4226 63.2615 92.5474 65.7665 93.0717 67.2345C93.5235 68.4994 94.174 69.637 94.9589 70.5351L95.5086 71.1639L94.5292 71.7022C91.5954 73.3149 89.1415 75.8838 87.5955 78.9608C86.4458 81.2491 85.8647 83.5079 85.8009 85.9358C85.7692 87.149 85.7973 87.2977 86.1614 87.8488C86.9169 88.9918 85.8855 88.9287 103.078 88.8831C118.23 88.843 118.341 88.8405 118.742 88.5406C119.779 87.7667 120 86.8111 119.688 84.4623C119.331 81.7811 118.036 78.5271 116.535 76.538C115.055 74.5782 112.784 72.5958 110.962 71.6732C110.559 71.4693 110.203 71.2782 110.17 71.2484C110.137 71.2187 110.409 70.8147 110.773 70.3506C111.598 69.2993 112.4 67.7215 112.735 66.4911C113.084 65.212 113.092 62.6545 112.751 61.3769C111.802 57.8195 108.871 54.871 105.395 53.9776C104.503 53.7482 102.121 53.5714 101.587 53.6949ZM45.9228 58.429C42.4539 59.3395 40.6609 63.068 42.1558 66.2624C43.4475 69.0226 46.4274 70.1971 49.3625 69.1024C50.5022 68.6775 51.985 67.1835 52.4172 66.0247C53.2417 63.8138 52.7823 61.5636 51.1789 59.9602C50.2124 58.9937 48.8551 58.4059 47.4721 58.3547C46.8616 58.3322 46.1645 58.3656 45.9228 58.429ZM101.294 58.4965C99.049 59.2449 97.6603 60.8013 97.2497 63.0292C96.914 64.8519 97.5572 66.661 99.0239 68.0189C100.166 69.0761 101.18 69.4727 102.759 69.4795C105.296 69.4902 107.284 68.0568 108.107 65.6236C108.996 62.9984 107.74 60.0756 105.204 58.8654C104.082 58.3298 102.298 58.1617 101.294 58.4965ZM44.6044 74.5017C41.0358 75.2959 37.7895 77.8204 36.1424 81.0822C35.7175 81.9238 35.1562 83.5615 35.1562 83.9596C35.1562 84.2182 35.6164 84.2284 47.2411 84.2284C54.2516 84.2284 59.3261 84.1733 59.3261 84.0973C59.3261 84.0252 59.1866 83.5144 59.0163 82.9621C57.8035 79.0307 54.8239 76.0503 50.83 74.774C49.2406 74.2662 46.2503 74.1353 44.6044 74.5017ZM99.874 74.5657C96.8861 75.3005 94.2201 77.1764 92.509 79.7479C91.7024 80.9603 90.9247 82.6909 90.7424 83.6791L90.6411 84.2284H102.806H114.972L114.678 83.1664C113.498 78.8992 109.746 75.4178 105.327 74.4881C103.864 74.1805 101.292 74.2171 99.874 74.5657ZM73.9013 76.3998C73.7402 76.4371 73.2458 76.5381 72.8027 76.6243C71.6743 76.8437 69.5114 77.923 68.5561 78.7435C64.2642 82.4289 63.6469 88.7662 67.1598 93.079L67.8212 93.891L67.199 94.2077C61.9263 96.892 58.1542 102.957 58.1542 108.749C58.1542 110.224 58.4264 110.811 59.3317 111.29L59.9656 111.625L75.309 111.586C90.6179 111.548 90.6532 111.547 91.0659 111.241C91.8598 110.653 92.1386 110.064 92.1386 108.973C92.1386 106.594 91.5149 104.04 90.3705 101.733C88.8109 98.5896 86.2452 95.9359 83.203 94.3199C82.8405 94.1272 82.5201 93.9569 82.4911 93.9412C82.462 93.9257 82.7353 93.5302 83.0983 93.0623C85.6773 89.7392 86.0974 85.8081 84.276 82.0383C83.7127 80.872 83.408 80.4559 82.3432 79.3974C80.375 77.4412 78.2693 76.5044 75.5859 76.3909C74.8205 76.3585 74.0624 76.3626 73.9013 76.3998ZM73.6083 81.2026C71.405 81.9333 69.9333 83.6026 69.5779 85.774C68.9778 89.4419 72.4483 92.854 76.0571 92.144C77.8968 91.782 79.3966 90.6416 80.2089 88.9872C80.5983 88.1943 80.6396 87.9698 80.6396 86.6454C80.6396 85.3626 80.5908 85.0764 80.247 84.343C79.7027 83.1816 78.6694 82.1252 77.5282 81.5634C76.7448 81.1777 76.3791 81.0906 75.3888 81.0532C74.667 81.0261 73.9624 81.0851 73.6083 81.2026ZM72.5829 97.1797C70.4416 97.6662 68.0845 98.9023 66.5996 100.317C65.796 101.083 64.8522 102.335 64.2541 103.428C63.7851 104.286 62.9882 106.393 62.9882 106.776C62.9882 106.887 66.5797 106.933 75.137 106.933H87.286L86.9992 105.899C85.8853 101.879 82.4075 98.4525 78.2958 97.3232C77.105 96.9963 73.7602 96.9122 72.5829 97.1797ZM122.314 100.147C115.547 112.929 103.572 122.607 89.6275 126.561C74.5057 130.85 58.5326 128.325 45.1734 119.535L44.7169 119.234L39.8999 125.641C37.2506 129.165 35.0385 132.117 34.9845 132.202C34.8229 132.453 38.6138 134.893 41.9677 136.695C54.8204 143.604 69.2974 146.268 83.9687 144.426C95.1686 143.019 106.239 138.676 115.5 132.056C118.824 129.68 121.325 127.552 124.368 124.512C127.816 121.067 130.133 118.297 132.888 114.324C134.865 111.472 138.416 105.103 138.165 104.856C138.056 104.748 123.88 98.5991 123.469 98.4812C123.291 98.4302 123.004 98.8445 122.314 100.147Z" fill="black"/>
<path fill-rule="evenodd" clip-rule="evenodd" d="M23.941 20.3979L23.5107 20.874L23.9868 20.4438C24.4305 20.0427 24.5303 19.9219 24.417 19.9219C24.3918 19.9219 24.1775 20.1362 23.941 20.3979ZM20.2789 24.0601L19.8486 24.5361L20.3247 24.1059C20.7684 23.7048 20.8682 23.584 20.7549 23.584C20.7297 23.584 20.5154 23.7983 20.2789 24.0601ZM129.199 23.6298C129.199 23.655 129.413 23.8693 129.675 24.1059L130.151 24.5361L129.721 24.0601C129.32 23.6164 129.199 23.5166 129.199 23.6298ZM72.3633 26.2299C50.6079 27.3558 32.0981 43.0327 27.322 64.378C25.8026 71.1678 25.8026 78.8322 27.322 85.622C29.3558 94.7117 33.792 102.77 40.4297 109.432C46.3129 115.337 53.0265 119.372 61.0107 121.801C73.4751 125.593 87.7348 123.995 98.9858 117.544C113.704 109.105 122.935 94.1908 123.753 77.5269C124.441 63.5004 119.395 50.3871 109.504 40.4959C103.113 34.1048 95.5528 29.8014 86.8652 27.6094C82.3201 26.4627 77.2276 25.9783 72.3633 26.2299ZM72.5435 31.2034C71.0448 31.5961 69.325 32.5359 68.1699 33.5938C64.1738 37.2532 63.6521 43.2259 66.9526 47.5321L67.6604 48.4557L66.5142 49.1218C61.9381 51.7806 58.822 56.5255 58.1509 61.8565C58.052 62.6429 58.003 63.6196 58.0422 64.027C58.1495 65.1441 58.875 65.9571 59.9966 66.2172C60.7532 66.3926 89.5397 66.3926 90.2963 66.2172C91.0859 66.034 91.5731 65.6467 91.9189 64.9269C92.0801 64.5916 92.2538 64.3148 92.3049 64.3119C92.3561 64.309 92.445 64.6833 92.5025 65.1437C92.733 66.988 93.4238 68.647 94.6189 70.2261L95.3502 71.1921L94.66 71.5449C93.4219 72.1775 91.7963 73.4174 90.5708 74.664C87.9653 77.314 86.3596 80.5746 85.8428 84.2645C85.744 84.9691 85.6107 85.5132 85.5467 85.4735C85.4826 85.4338 85.3191 84.9026 85.1834 84.2931C84.3599 80.5915 81.393 77.5534 77.6725 76.6018C76.1852 76.2214 74.0997 76.2234 72.601 76.6066C69.7998 77.3231 67.1855 79.3976 65.9499 81.8848C65.0761 83.6435 64.8258 84.7113 64.8338 86.6455C64.8439 89.0804 65.4795 90.9885 66.9127 92.8869C67.2519 93.3359 67.5293 93.7692 67.5293 93.8496C67.5293 93.9302 67.3479 94.078 67.1265 94.1783C65.3676 94.9743 62.6051 97.392 61.2319 99.3371C59.191 102.228 57.8647 106.342 58.0396 109.239C58.1178 110.535 58.7821 111.346 59.9966 111.627C60.7226 111.796 89.3432 111.8 90.2136 111.631C91.073 111.466 91.5568 111.085 91.9787 110.243C92.3231 109.555 92.3276 109.5 92.1686 107.907C91.7536 103.752 90.2638 100.47 87.4528 97.5179C86.2189 96.2222 84.7771 95.1129 82.8297 93.9614C82.5917 93.8205 82.6293 93.7308 83.245 92.9751C84.48 91.4587 85.3837 89.1173 85.4051 87.3779L85.414 86.6455L85.76 87.3047C85.9501 87.6672 86.314 88.1616 86.5683 88.4033L87.0309 88.8428L102.671 88.8813L118.31 88.92L118.803 88.5879C119.661 88.0096 119.898 87.4187 119.864 85.9428C119.77 81.8496 118.052 77.8263 115.079 74.7385C113.846 73.4577 112.948 72.7494 111.356 71.8022L110.161 71.0917L110.537 70.7388C111.163 70.1508 112.164 68.405 112.586 67.1631C113.096 65.665 113.227 63.3083 112.89 61.7202C112.244 58.6753 110.151 56.0273 107.281 54.6262C102.21 52.1501 95.984 54.3051 93.53 59.3865C92.9625 60.5613 92.5837 61.9112 92.3956 63.4277C92.3707 63.6292 92.2715 63.1348 92.1753 62.3291C91.8379 59.5044 91.0159 57.0775 89.6385 54.841C88.4965 52.9865 85.9411 50.4567 84.0441 49.303C83.2594 48.8256 82.6172 48.4072 82.6172 48.3732C82.6172 48.3393 82.8754 48.0182 83.1913 47.6594C83.9404 46.8084 84.8909 44.868 85.1855 43.5883C86.0876 39.671 84.5278 35.3292 81.3775 32.9875C80.2436 32.1447 78.6084 31.3831 77.3676 31.1202C75.9851 30.8271 73.8381 30.8641 72.5435 31.2034ZM44.8793 53.8233C42.8411 54.2856 40.5779 55.6937 39.2407 57.3309C38.302 58.4804 37.4074 60.3155 37.1161 61.6896C36.7686 63.3284 36.9009 65.6452 37.4319 67.2218C37.8391 68.4306 38.909 70.2631 39.5266 70.8097L39.8402 71.0871L38.862 71.6587C33.5735 74.7491 30.2237 80.2588 30.1626 85.9673C30.1503 87.1059 30.1958 87.3757 30.4762 87.8295C30.6567 88.1215 31.009 88.4851 31.259 88.6375C31.6978 88.905 32.2623 88.915 47.148 88.9154L62.5822 88.916L63.1342 88.6058C63.4386 88.4347 63.835 88.031 64.0176 87.7058C64.3251 87.1588 64.3427 86.9975 64.2606 85.489C64.0384 81.4072 62.291 77.5314 59.3323 74.5578C58.1805 73.3999 55.8076 71.6427 55.0879 71.4142C54.9214 71.3613 54.7852 71.2569 54.7852 71.1819C54.7852 71.107 55.0888 70.6336 55.46 70.1298C56.7521 68.376 57.3806 66.6669 57.5213 64.5236C57.82 59.9755 54.8739 55.6002 50.5226 54.1298C49.4979 53.7835 48.9977 53.706 47.5342 53.6669C46.3972 53.6364 45.4595 53.6916 44.8793 53.8233ZM85.4004 86.1242C85.4004 86.5431 85.6165 86.6041 85.6412 86.192C85.6529 85.9983 85.6034 85.8398 85.5313 85.8398C85.4593 85.8398 85.4004 85.9677 85.4004 86.1242ZM23.291 128.952C23.291 128.977 23.5053 129.192 23.7671 129.428L24.2432 129.858L23.8129 129.382C23.4119 128.939 23.291 128.839 23.291 128.952Z" fill="#EFF4F7"/>
<path fill-rule="evenodd" clip-rule="evenodd" d="M72.5831 97.1797C70.4417 97.6662 68.0847 98.9024 66.5998 100.317C65.7961 101.083 64.8523 102.335 64.2542 103.428C63.7852 104.286 62.9883 106.393 62.9883 106.776C62.9883 106.887 66.5798 106.934 75.1372 106.934H87.2861L86.9993 105.899C85.8854 101.879 82.4076 98.4525 78.2959 97.3233C77.1052 96.9963 73.7604 96.9122 72.5831 97.1797ZM122.315 100.147C119.83 104.84 116.551 109.233 112.657 113.087C98.7767 126.825 78.6591 131.905 59.854 126.421C54.8814 124.971 49.8888 122.623 45.1013 119.482L44.7191 119.232L40.1331 125.351C37.6108 128.716 35.3989 131.667 35.2175 131.909L34.8879 132.349L36.2306 133.248C55.7164 146.297 80.6806 148.643 102.296 139.457C114.892 134.104 125.751 125.053 133.406 113.525C135.478 110.405 138.395 105.088 138.163 104.855C138.056 104.748 123.879 98.5989 123.469 98.4812C123.291 98.4303 123.004 98.8445 122.315 100.147Z" fill="#36C1C5"/>
<path fill-rule="evenodd" clip-rule="evenodd" d="M77.3438 13.2451V21.3634L78.3325 21.4532C86.4943 22.1946 92.0691 23.6763 98.5107 26.8163C103.851 29.4195 108.541 32.7851 112.874 37.1237C118.825 43.0827 122.991 49.7128 125.675 57.4951C126.947 61.182 127.724 64.5712 128.346 69.1406C128.602 71.0243 128.601 78.9857 128.344 80.8594C127.726 85.3737 127.062 88.3604 125.888 91.9125C125.502 93.0794 125.216 94.0569 125.252 94.0849C125.59 94.3462 140.115 100.469 140.193 100.383C140.251 100.32 140.665 99.2024 141.113 97.8993C145.351 85.5851 146.103 72.6611 143.323 59.9121C139.524 42.4956 128.917 26.9726 113.892 16.8432C106.763 12.0372 97.6632 8.20415 89.401 6.52661C85.6192 5.75889 80.6294 5.12695 78.3486 5.12695H77.3438V13.2451ZM100.67 74.4302C95.9288 75.22 91.8749 79.0645 90.7623 83.8257L90.6683 84.2285H102.772H114.876L114.775 83.6792C114.593 82.6916 113.815 80.9607 113.01 79.7506C110.325 75.7151 105.484 73.6282 100.67 74.4302Z" fill="#D72626"/>
<path fill-rule="evenodd" clip-rule="evenodd" d="M71.3764 0.398026C71.5991 0.431571 71.9287 0.430692 72.1089 0.395975C72.289 0.361258 72.1068 0.333719 71.704 0.334745C71.3012 0.335916 71.1538 0.364334 71.3764 0.398026ZM77.8218 0.398026C78.0444 0.431571 78.374 0.430692 78.5542 0.395975C78.7343 0.361258 78.5521 0.333719 78.1493 0.334745C77.7465 0.335916 77.5991 0.364334 77.8218 0.398026ZM71.2645 5.08172C69.6135 5.16829 65.8471 5.57493 64.0136 5.86468C43.114 9.16775 24.739 21.9192 14.0994 40.5028C3.75179 58.5766 2.13137 80.825 9.74109 100.342C13.2561 109.357 18.4074 117.259 25.2684 124.16C28.6565 127.568 31.0177 129.598 31.2722 129.322C31.6263 128.939 40.7366 116.735 40.8084 116.548C40.8509 116.438 40.1208 115.673 39.0582 114.715C36.6387 112.535 34.2596 109.936 32.2026 107.226C24.9576 97.6831 21.0695 85.541 21.4374 73.6083C21.6895 65.4386 23.3716 58.6483 26.9536 51.3427C33.2634 38.4731 44.5033 28.6849 58.2555 24.0838C62.1948 22.7657 68.536 21.5392 71.4356 21.5344C72.7811 21.5321 72.6561 22.3886 72.6561 13.1678C72.6561 5.4573 72.6412 4.98196 72.3998 5.00804C72.2589 5.02327 71.7479 5.05652 71.2645 5.08172ZM22.1111 22.2289L21.6063 22.7782L22.1556 22.2734C22.6669 21.8035 22.7723 21.6796 22.6604 21.6796C22.636 21.6796 22.3888 21.9268 22.1111 22.2289ZM127.807 22.2655C128.122 22.5878 128.413 22.8514 128.453 22.8514C128.493 22.8514 128.269 22.5878 127.954 22.2655C127.639 21.9432 127.349 21.6796 127.309 21.6796C127.268 21.6796 127.493 21.9432 127.807 22.2655ZM72.4757 26.1803C72.7389 26.2128 73.1344 26.2122 73.3546 26.1788C73.5747 26.1453 73.3593 26.1186 72.8759 26.1195C72.3925 26.1202 72.2124 26.1476 72.4757 26.1803ZM76.7237 26.1803C76.9869 26.2128 77.3824 26.2122 77.6026 26.1788C77.8228 26.1453 77.6073 26.1186 77.1239 26.1195C76.6405 26.1202 76.4605 26.1476 76.7237 26.1803ZM40.3518 40.4662L39.4774 41.3817L40.3929 40.5074C41.2434 39.6952 41.3756 39.5507 41.2673 39.5507C41.2446 39.5507 40.8325 39.9627 40.3518 40.4662ZM109.424 40.3563C109.861 40.7994 110.252 41.162 110.293 41.162C110.333 41.162 110.008 40.7994 109.57 40.3563C109.133 39.9132 108.742 39.5507 108.701 39.5507C108.661 39.5507 108.986 39.9132 109.424 40.3563ZM64.7879 41.2352C64.789 41.6381 64.8175 41.7854 64.8512 41.5628C64.8847 41.3401 64.8838 41.0105 64.8491 40.8304C64.8144 40.6502 64.7868 40.8324 64.7879 41.2352ZM58.0546 63.4276C58.0546 63.9513 58.0812 64.1656 58.1136 63.9037C58.1461 63.6418 58.1461 63.2135 58.1136 62.9515C58.0812 62.6896 58.0546 62.9039 58.0546 63.4276ZM57.471 63.8671C57.471 64.4713 57.4969 64.7186 57.5284 64.4164C57.56 64.1143 57.56 63.62 57.5284 63.3178C57.4969 63.0157 57.471 63.2628 57.471 63.8671ZM92.4807 63.8671C92.4807 64.4713 92.5067 64.7186 92.5382 64.4164C92.5698 64.1143 92.5698 63.62 92.5382 63.3178C92.5067 63.0157 92.4807 63.2628 92.4807 63.8671ZM123.667 70.6054C123.667 70.8873 123.697 71.0026 123.734 70.8617C123.771 70.7208 123.771 70.4899 123.734 70.349C123.697 70.2081 123.667 70.3234 123.667 70.6054ZM0.334745 71.8505C0.335916 72.2533 0.364334 72.4007 0.398026 72.178C0.431571 71.9554 0.430692 71.6258 0.395975 71.4456C0.361258 71.2654 0.333719 71.4476 0.334745 71.8505ZM149.602 71.8505C149.603 72.2533 149.632 72.4007 149.666 72.178C149.699 71.9554 149.698 71.6258 149.664 71.4456C149.629 71.2654 149.601 71.4476 149.602 71.8505ZM26.121 72.9491C26.121 73.4728 26.1476 73.6871 26.18 73.4252C26.2125 73.1633 26.2125 72.7349 26.18 72.473C26.1476 72.2111 26.121 72.4254 26.121 72.9491ZM123.825 73.0223C123.825 73.5057 123.853 73.6858 123.885 73.4225C123.918 73.1593 123.917 72.7638 123.884 72.5436C123.85 72.3235 123.824 72.5389 123.825 73.0223ZM113.818 73.5809C113.818 73.6061 114.032 73.8204 114.294 74.057L114.77 74.4872L114.34 74.0111C113.939 73.5674 113.818 73.4677 113.818 73.5809ZM44.6044 74.5017C41.0357 75.2959 37.7895 77.8204 36.1424 81.0822C35.7175 81.9238 35.1561 83.5614 35.1561 83.9596C35.1561 84.2181 35.6164 84.2284 47.2411 84.2284C54.2515 84.2284 59.3261 84.1733 59.3261 84.0973C59.3261 84.0252 59.1866 83.5144 59.0162 82.962C57.8035 79.0307 54.8239 76.0503 50.83 74.774C49.2406 74.2661 46.2503 74.1353 44.6044 74.5017ZM114.99 74.7528C114.99 74.778 115.204 74.9923 115.466 75.2288L115.942 75.6591L115.512 75.183C115.111 74.7393 114.99 74.6395 114.99 74.7528ZM123.825 76.9774C123.825 77.4608 123.853 77.6408 123.885 77.3776C123.918 77.1144 123.917 76.7189 123.884 76.4987C123.85 76.2785 123.824 76.494 123.825 76.9774ZM26.118 77.0507C26.118 77.4938 26.1454 77.6751 26.179 77.4535C26.2125 77.2319 26.2125 76.8695 26.179 76.6478C26.1454 76.4262 26.118 76.6075 26.118 77.0507ZM0.334745 78.1493C0.335916 78.5521 0.364334 78.6995 0.398026 78.4768C0.431571 78.2542 0.430692 77.9246 0.395975 77.7444C0.361258 77.5642 0.333719 77.7465 0.334745 78.1493ZM149.602 78.1493C149.603 78.5521 149.632 78.6995 149.666 78.4768C149.699 78.2542 149.698 77.9246 149.664 77.7444C149.629 77.5642 149.601 77.7465 149.602 78.1493ZM82.3241 79.3212C82.5974 79.6032 82.8539 79.8339 82.8942 79.8339C82.9345 79.8339 82.7439 79.6032 82.4706 79.3212C82.1972 79.0392 81.9407 78.8085 81.9005 78.8085C81.8602 78.8085 82.0508 79.0392 82.3241 79.3212ZM85.7272 85.5468C85.7272 85.8287 85.7574 85.944 85.7942 85.8031C85.8311 85.6622 85.8311 85.4313 85.7942 85.2904C85.7574 85.1495 85.7272 85.2648 85.7272 85.5468ZM64.7879 86.6454C64.789 87.0482 64.8175 87.1956 64.8512 86.9729C64.8847 86.7503 64.8838 86.4207 64.8491 86.2405C64.8144 86.0603 64.7868 86.2426 64.7879 86.6454ZM58.0546 108.838C58.0546 109.361 58.0812 109.576 58.1136 109.314C58.1461 109.052 58.1461 108.624 58.1136 108.362C58.0812 108.1 58.0546 108.314 58.0546 108.838ZM92.1725 109.131C92.1725 109.413 92.2027 109.528 92.2395 109.387C92.2764 109.246 92.2764 109.015 92.2395 108.874C92.2027 108.733 92.1725 108.849 92.1725 109.131ZM109.565 109.534L108.765 110.376L109.607 109.575C110.389 108.831 110.516 108.691 110.407 108.691C110.385 108.691 110.006 109.07 109.565 109.534ZM40.3563 109.57C40.7532 109.973 41.1107 110.303 41.151 110.303C41.1913 110.303 40.8996 109.973 40.5028 109.57C40.106 109.167 39.7484 108.838 39.7081 108.838C39.6679 108.838 39.9595 109.167 40.3563 109.57ZM72.473 123.885C72.7349 123.918 73.1633 123.918 73.4252 123.885C73.6871 123.853 73.4728 123.826 72.9491 123.826C72.4254 123.826 72.2111 123.853 72.473 123.885ZM76.7237 123.885C76.9869 123.918 77.3824 123.917 77.6026 123.884C77.8228 123.85 77.6073 123.824 77.1239 123.825C76.6405 123.825 76.4605 123.853 76.7237 123.885ZM22.119 127.807C22.3924 128.089 22.6489 128.32 22.6891 128.32C22.7294 128.32 22.5388 128.089 22.2655 127.807C21.9922 127.526 21.7357 127.295 21.6954 127.295C21.6551 127.295 21.8457 127.526 22.119 127.807ZM127.726 127.844L127.222 128.393L127.771 127.889C128.282 127.419 128.388 127.295 128.276 127.295C128.251 127.295 128.004 127.542 127.726 127.844ZM71.3764 149.666C71.5991 149.699 71.9287 149.698 72.1089 149.664C72.289 149.629 72.1068 149.601 71.704 149.602C71.3012 149.603 71.1538 149.632 71.3764 149.666ZM77.8218 149.666C78.0444 149.699 78.374 149.698 78.5542 149.664C78.7343 149.629 78.5521 149.601 78.1493 149.602C77.7465 149.603 77.5991 149.632 77.8218 149.666Z" fill="#64B5F6"/>
<path fill-rule="evenodd" clip-rule="evenodd" d="M77.6019 5.08405C77.7841 5.11906 78.0478 5.11774 78.1878 5.08112C78.3278 5.0445 78.1787 5.01579 77.8565 5.0174C77.5342 5.01901 77.4196 5.04904 77.6019 5.08405ZM77.5269 21.4877C77.6678 21.5246 77.8986 21.5246 78.0396 21.4877C78.1805 21.4509 78.0652 21.4207 77.7832 21.4207C77.5012 21.4207 77.3859 21.4509 77.5269 21.4877ZM74.8169 46.8319C74.9982 46.8668 75.2949 46.8668 75.4761 46.8319C75.6573 46.7969 75.509 46.7684 75.1465 46.7684C74.7839 46.7684 74.6356 46.7969 74.8169 46.8319ZM72.5789 51.777C68.4141 52.7344 65.0638 55.6112 63.5794 59.5043C63.3557 60.0911 63.1327 60.7855 63.0841 61.0474L62.9956 61.5235H75.1408H87.2861L86.9924 60.4614C86.3848 58.2643 84.9201 56.0312 83.0022 54.3775C81.9957 53.5097 79.6283 52.2706 78.2959 51.9141C77.0867 51.5905 73.7392 51.5102 72.5789 51.777ZM52.7763 63.9404C52.7774 64.3433 52.8059 64.4906 52.8396 64.268C52.8731 64.0453 52.8722 63.7157 52.8375 63.5356C52.8028 63.3554 52.7753 63.5376 52.7763 63.9404ZM97.161 63.9404C97.1622 64.3433 97.1906 64.4906 97.2243 64.268C97.2579 64.0453 97.257 63.7157 97.2223 63.5356C97.1876 63.3554 97.16 63.5376 97.161 63.9404ZM46.8384 69.537C47.0197 69.5719 47.3162 69.5719 47.4976 69.537C47.6789 69.502 47.5305 69.4735 47.168 69.4735C46.8054 69.4735 46.657 69.502 46.8384 69.537ZM102.502 69.537C102.684 69.5719 102.98 69.5719 103.162 69.537C103.343 69.502 103.195 69.4735 102.832 69.4735C102.469 69.4735 102.321 69.502 102.502 69.537ZM144.915 72.1436C144.916 72.5464 144.945 72.6938 144.978 72.4711C145.012 72.2485 145.011 71.9189 144.976 71.7387C144.941 71.5585 144.914 71.7407 144.915 72.1436ZM144.921 77.5635C144.922 78.1275 144.948 78.3402 144.98 78.0363C145.012 77.7324 145.011 77.271 144.979 77.011C144.946 76.7508 144.921 76.9995 144.921 77.5635ZM79.0191 90.564L78.5889 91.0401L79.0649 90.6098C79.5086 90.2088 79.6084 90.0879 79.4952 90.0879C79.47 90.0879 79.2557 90.3021 79.0191 90.564ZM74.8169 92.2421C74.9982 92.277 75.2949 92.277 75.4761 92.2421C75.6573 92.2071 75.509 92.1785 75.1465 92.1785C74.7839 92.1785 74.6356 92.2071 74.8169 92.2421Z" fill="#F8FF5F"/>
<path fill-rule="evenodd" clip-rule="evenodd" d="M126.709 21.167C126.982 21.449 127.239 21.6797 127.279 21.6797C127.319 21.6797 127.129 21.449 126.855 21.167C126.582 20.885 126.326 20.6543 126.285 20.6543C126.245 20.6543 126.436 20.885 126.709 21.167ZM23.0621 21.2769L22.6318 21.7529L23.1079 21.3227C23.5516 20.9216 23.6514 20.8008 23.5381 20.8008C23.5129 20.8008 23.2986 21.0151 23.0621 21.2769ZM21.1578 23.1812L20.7275 23.6572L21.2036 23.227C21.4654 22.9904 21.6797 22.7761 21.6797 22.7509C21.6797 22.6377 21.5588 22.7375 21.1578 23.1812ZM74.0342 35.7467C72.4097 36.0687 70.8888 37.2548 70.1339 38.7882C69.6877 39.6945 69.6533 39.8694 69.6533 41.2323C69.6533 42.5587 69.6948 42.7847 70.0827 43.5759C70.6294 44.6914 71.6142 45.6762 72.7314 46.2246C73.5328 46.6181 73.7411 46.6553 75.1465 46.6553C76.5243 46.6553 76.7691 46.6137 77.4958 46.2565C78.5741 45.7264 79.5981 44.6755 80.1716 43.5105C80.5938 42.6532 80.6397 42.4295 80.6397 41.2308C80.6397 39.9886 80.6035 39.8287 80.0862 38.782C78.9378 36.4584 76.5316 35.2515 74.0342 35.7467ZM62.9058 51.8921L62.4756 52.3682L62.9517 51.9379C63.3954 51.5369 63.4951 51.416 63.3819 51.416C63.3567 51.416 63.1424 51.6302 62.9058 51.8921ZM45.9229 58.4988C43.6994 59.0751 42.1865 60.704 41.7432 62.999C41.3013 65.2871 42.5038 67.6654 44.7066 68.8598C45.5911 69.3394 45.6946 69.3604 47.171 69.3604C48.6173 69.3604 48.7724 69.3308 49.6901 68.8789C50.8242 68.3206 51.7118 67.406 52.2788 66.2109C52.6154 65.5015 52.6611 65.2217 52.6611 63.8672C52.6611 62.3943 52.6399 62.29 52.1606 61.4058C50.9156 59.1098 48.2889 57.8856 45.9229 58.4988ZM101.7 58.4552C100.092 58.7725 98.6004 59.9171 97.7997 61.4479C97.3679 62.2736 97.3389 62.4264 97.3389 63.8703C97.3389 65.3165 97.3685 65.4716 97.8204 66.3894C98.3786 67.5234 99.2933 68.411 100.488 68.978C101.198 69.3147 101.477 69.3604 102.832 69.3604C104.276 69.3604 104.425 69.3319 105.262 68.8941C107.488 67.7306 108.732 65.2356 108.25 62.9033C107.776 60.6051 106.142 58.944 103.887 58.4654C103.014 58.2803 102.596 58.2784 101.7 58.4552ZM67.7124 66.3208C71.8011 66.3423 78.4918 66.3423 82.5806 66.3208C86.6692 66.2991 83.324 66.2814 75.1465 66.2814C66.969 66.2814 63.6236 66.2991 67.7124 66.3208ZM26.1082 75.8789C26.1082 76.1609 26.1384 76.2762 26.1751 76.1353C26.2121 75.9943 26.2121 75.7635 26.1751 75.6226C26.1384 75.4816 26.1082 75.5969 26.1082 75.8789ZM73.7086 81.2257C72.0898 81.6801 70.7653 82.8088 70.043 84.3494C69.7025 85.0758 69.6533 85.3654 69.6533 86.6455C69.6533 87.9684 69.6949 88.1952 70.0827 88.986C70.6294 90.1015 71.6142 91.0863 72.7314 91.6348C73.5328 92.0282 73.7411 92.0654 75.1465 92.0654C76.587 92.0654 76.7405 92.0361 77.5658 91.6046C80.3408 90.1532 81.4329 86.9662 80.1154 84.1633C79.0403 81.8763 76.1357 80.5444 73.7086 81.2257ZM62.9804 97.229L62.4756 97.7783L63.0249 97.2735C63.5361 96.8036 63.6416 96.6797 63.5297 96.6797C63.5052 96.6797 63.2581 96.927 62.9804 97.229ZM67.7235 111.731C71.8185 111.753 78.4762 111.753 82.5185 111.731C86.5608 111.709 83.2105 111.692 75.0732 111.692C66.936 111.692 63.6287 111.709 67.7235 111.731ZM20.8008 126.462C20.8008 126.487 21.0151 126.701 21.2769 126.938L21.7529 127.368L21.3227 126.892C20.9216 126.448 20.8008 126.349 20.8008 126.462Z" fill="#FFD6BD"/>
</g>
<defs>
<clipPath id="clip0_727_1373">
<rect width="150" height="150" fill="white"/>
</clipPath>
</defs>
</svg>
